<?xml version="1.0" encoding="UTF-8"?>
<svg id="uuid-77d3e52e-b516-4edd-94e9-1b2ca409a941" data-name="IMG_0586 图像" xmlns="http://www.w3.org/2000/svg" xmlns:xlink="http://www.w3.org/1999/xlink" viewBox="0 0 258 258">
  <defs>
    <style>
      .uuid-cf060d11-5e9d-451f-bb8b-7f7770bdda08, .uuid-3e1d1b22-63f0-45f1-bb02-8270e3bfa508 {
        fill: #004580;
      }

      .uuid-74fa53bc-8f8a-4d69-91ae-f0de7bc6d31e {
        fill: #fff;
      }

      .uuid-0652eb4e-e87c-4901-b7ef-f501844a8805, .uuid-afac77fe-b05c-40ff-9039-5b666a9881bc {
        fill: #2ca6e0;
      }

      .uuid-5d1a1ffd-cb0d-4e55-8518-499345aa3a4c {
        fill: url(#uuid-5727b2f9-7dcc-48ca-b901-eee33947e341);
      }

      .uuid-5d1a1ffd-cb0d-4e55-8518-499345aa3a4c, .uuid-68079dfe-ad83-4c22-84ff-592de88fb996, .uuid-afac77fe-b05c-40ff-9039-5b666a9881bc, .uuid-3e1d1b22-63f0-45f1-bb02-8270e3bfa508 {
        fill-rule: evenodd;
      }

      .uuid-68079dfe-ad83-4c22-84ff-592de88fb996 {
        fill: url(#uuid-b4f79912-2487-4c8a-8032-dab6632ede61);
      }
    </style>
    <linearGradient id="uuid-b4f79912-2487-4c8a-8032-dab6632ede61" data-name="未命名的渐变 3" x1="109.62" y1="95.45" x2="122.96" y2="95.45" gradientTransform="translate(0 38.11)" gradientUnits="userSpaceOnUse">
      <stop offset=".41" stop-color="#fff" stop-opacity="0"/>
      <stop offset=".6" stop-color="#fff" stop-opacity="0"/>
      <stop offset=".68" stop-color="#fff" stop-opacity=".04"/>
      <stop offset=".74" stop-color="#fff" stop-opacity=".09"/>
      <stop offset=".79" stop-color="#fff" stop-opacity=".16"/>
      <stop offset=".83" stop-color="#fff" stop-opacity=".25"/>
      <stop offset=".87" stop-color="#fff" stop-opacity=".36"/>
      <stop offset=".91" stop-color="#fff" stop-opacity=".49"/>
      <stop offset=".94" stop-color="#fff" stop-opacity=".65"/>
      <stop offset=".97" stop-color="#fff" stop-opacity=".82"/>
      <stop offset="1" stop-color="#fff"/>
    </linearGradient>
    <linearGradient id="uuid-5727b2f9-7dcc-48ca-b901-eee33947e341" data-name="未命名的渐变 2" x1="108.87" y1="95.86" x2="117.61" y2="87.99" gradientTransform="translate(0 38.11)" gradientUnits="userSpaceOnUse">
      <stop offset=".75" stop-color="#fff" stop-opacity="0"/>
      <stop offset=".83" stop-color="#fff" stop-opacity="0"/>
      <stop offset=".86" stop-color="#fff" stop-opacity=".04"/>
      <stop offset=".89" stop-color="#fff" stop-opacity=".09"/>
      <stop offset=".91" stop-color="#fff" stop-opacity=".16"/>
      <stop offset=".93" stop-color="#fff" stop-opacity=".25"/>
      <stop offset=".95" stop-color="#fff" stop-opacity=".36"/>
      <stop offset=".96" stop-color="#fff" stop-opacity=".49"/>
      <stop offset=".98" stop-color="#fff" stop-opacity=".65"/>
      <stop offset=".99" stop-color="#fff" stop-opacity=".82"/>
      <stop offset="1" stop-color="#fff"/>
    </linearGradient>
  </defs>
  <path class="uuid-74fa53bc-8f8a-4d69-91ae-f0de7bc6d31e" d="m.02,128.88C.02,86.3.03,43.72,0,1.15,0,.21.21,0,1.15,0,86.38.03,171.62.03,256.85,0c.94,0,1.15.21,1.15,1.15-.03,85.23-.03,170.47,0,255.7,0,.94-.21,1.15-1.15,1.15-85.23-.03-170.47-.03-255.7,0-.94,0-1.15-.21-1.15-1.15.03-42.66.02-85.32.02-127.98Z"/>
  <path d="m114.02,95.99c-2.01,0-4.02,0-6.03,0-.07-.05-.13-.1-.2-.14-.44-.53-.38-1.17-.39-1.79-.02-8.7-.02-17.4,0-26.1,0-.67,0-1.34.36-1.94.59-.69,1.42-.61,2.19-.61,4.32-.02,8.64,0,12.95-.02,2.08,0,2.46-.4,2.48-2.48.01-1.95,0-3.9,0-5.85,0-2.08-.32-2.38-2.37-2.42-.99-.02-2,.13-2.95-.3-.14-.07-.25-.17-.33-.3-.62-1.87-.38-3.78-.21-5.67.08-.86.87-.91,1.54-.93,2.49-.08,4.98-.02,7.47-.04,2.54-.01,2.83-.31,2.84-2.89,0-1.74,0-3.49,0-5.23-.01-2.26-.36-2.59-2.59-2.65-.89-.02-1.84.21-2.65-.4-.04-.06-.08-.13-.12-.19,0-1.62.04-3.24-.04-4.86-.05-.95.27-1.18,1.19-1.18,7.19.04,14.38,0,21.56.05,1.05,0,1.34-.27,1.28-1.31-.09-1.57-.01-3.16,0-4.73l-.04.04c2.01,0,4.02,0,6.03,0,.07.05.13.09.2.14.34.37.37.83.38,1.29.04,3.08.05,6.16,0,9.25,0,.38-.06.75-.22,1.09-.04.14-.11.27-.2.38-1.02.67-2.17.38-3.28.45-.78.05-1.74-.14-2.06.78-.38,1.1-.43,2.3.1,3.4.24.5.8.55,1.31.57.75.03,1.5,0,2.24.03.5.02,1.01.02,1.4.41.03.06.06.12.1.18,0,1.62-.04,3.25.04,4.86.05.93-.22,1.18-1.16,1.18-5.2-.05-10.39,0-15.59-.05-1.05-.01-1.35.26-1.29,1.3.1,1.57.04,3.16.04,4.74-.76.84-1.77.58-2.7.59-2.44.05-2.7.29-2.7,2.75,0,1.91-.01,3.82,0,5.74.02,1.91.42,2.29,2.4,2.28,1.93,0,2.34-.4,2.35-2.34.02-2.41,0-4.82.01-7.23,0-.67.01-1.34.59-1.83,1.62,0,3.25.08,4.87,0,.95-.05,1.17.25,1.16,1.18-.04,7.16,0,14.33-.05,21.49,0,1.06.2,1.49,1.35,1.38,1.2-.12,2.42-.1,3.62,0,.94.07,1.12-.29,1.08-1.12-.06-1.37,0-2.75-.03-4.12-.01-.59.18-.79.78-.79,5.5.02,11,.02,16.49,0,.64,0,.75.27.74.82-.03,1.46-.04,2.92,0,4.37.02.69-.24.84-.87.83-1.46-.04-2.92.01-4.37-.02-.6-.01-.8.19-.78.79.03,1.42-.03,2.83.02,4.25.03.75-.16,1.03-.96.99-1.37-.07-2.75.01-4.12-.03-.67-.02-.97.13-.94.88.06,1.41.05,2.83,0,4.25-.03.73.23.91.93.9,3.33-.03,6.66.02,10-.03.87-.01,1.17.21,1.11,1.1-.08,1.24.04,2.5-.04,3.75-.05.9.16,1.27,1.14,1.2,1.28-.09,2.58.03,3.87-.04.85-.05,1.05.27,1.02,1.06-.06,1.33-.06,2.67,0,4,.04.78-.22.98-.98.97-3.33-.04-6.66,0-10-.03-.79,0-1.1.18-1.06,1.03.07,1.33-.02,2.67.03,4,.03.72-.13,1.12-.95,1-.33-.05-.67-.03-1,0-.84.06-1.29-.02-1.36-1.14-.07-1.16-.7-2.26-1.42-3.26-2.27-3.16-5.33-4.64-9.19-4.56-1.08.02-2.17-.03-3.25.01-.64.02-.84-.2-.86-.85-.06-2.19-.09-2.19-2.34-2.19-.37,0-.75,0-1.12,0-2.35,0-2.38,0-2.5,2.27-.03.63-.27.75-.83.75-3.41-.02-6.83-.04-10.24,0-.8,0-.96-.26-.96-1,0-2.02-.03-2.02-2-2.03-1.33,0-2.67-.01-4-.02-.06-.04-.13-.08-.19-.12-.76-1.84-.39-3.74-.24-5.62.04-.5.53-.7,1.02-.77.7-.09,1.41-.07,2.11-.08,2.34-.02,2.68-.35,2.7-2.65,0-.5,0-1,.04-1.49.03-.47.16-.9.55-1.2.49-.65,1.22-.64,1.92-.64,2.41-.02,4.82.01,7.23-.02,1.79-.02,2.23-.45,2.25-2.21.02-2.16.03-4.32,0-6.48-.03-1.56-.48-2.02-2.02-2.05-2.24-.04-4.49-.04-6.73,0-1.47.03-1.94.5-1.98,1.97-.05,2.49,0,4.99-.03,7.48,0,.71.03,1.43-.63,1.93-.37.48-.9.56-1.45.58-1,.04-2,.04-2.99,0-1.86-.05-2.1-.27-2.14-2.1-.05-2.41,0-4.82-.02-7.24-.02-2.35-1.32-3.26-3.6-2.53-.68.22-1,.7-1.1,1.37-.08.54-.06,1.08-.06,1.62,0,5.99,0,11.98-.01,17.96,0,.73.13,1.51-.4,2.16-.07.04-.13.08-.2.13Z"/>
  <path d="m197.97,114.02c1.71,0,3.41.02,5.12-.03.71-.02.93.21.91.91-.05,1.37.02,2.75-.03,4.12-.03.74.16,1.04.96,1,1.33-.07,2.67.04,3.99-.04.92-.06,1.09.29,1.08,1.13-.05,3.25.02,6.5-.04,9.74-.02.94.24,1.18,1.17,1.17,3.62-.05,7.24-.01,10.87,0,.06.04.12.08.19.11.49.56.4,1.25.4,1.9.03,2.41-.01,4.82.02,7.23.03,1.75.49,2.13,2.44,2.12,1.83-.01,2.28-.41,2.3-2.14.03-2.41,0-4.82.01-7.23,0-.67,0-1.33.3-1.95.07-.13.16-.24.29-.33,1.06-.52,2.2-.3,3.31-.35,1.62-.07,2.06-.48,2.08-2.12.04-2.41,0-4.82.02-7.22,0-.65-.08-1.34.4-1.9.06-.04.13-.08.19-.12,1.75,0,3.49,0,5.24-.03.59-.01.79.18.78.78-.02,5.49-.02,10.98,0,16.48,0,.62-.24.77-.8.76-1.46-.03-2.91.02-4.37-.02-.65-.02-.87.18-.85.84.04,1.45.05,2.91,0,4.37-.02.7.27.83.88.81,1.41-.03,2.83,0,4.24-.02.58-.01.91.07.9.79-.03,5.49-.02,10.98,0,16.48,0,.64-.26.76-.82.75-1.41-.03-2.83-.06-4.24,0-.82.04-.96-.31-.95-1.02.02-3.29-.02-6.57.02-9.86,0-.81-.11-1.16-1.05-1.15-5.66.05-11.32.04-16.97.04-.61-.53-.59-1.25-.59-1.96-.03-2.37.01-4.75-.02-7.12-.02-1.83-.48-2.29-2.31-2.31-2.37-.03-4.75.01-7.12-.02-.66,0-1.35.06-1.86-.52-.56-.41-.69-.99-.7-1.65,0-.71,0-1.41-.03-2.12-.04-1.11-.62-1.68-1.73-1.69-2.45-.03-4.9-.04-7.35,0-1.05.02-1.6.58-1.65,1.63-.02.37-.02.75-.01,1.12.06,1.49.47,1.95,1.95,1.97,2.53.05,5.07,0,7.6.02.67,0,1.35,0,1.81.61.73.58.6,1.41.61,2.19.05,3.09.13,3.17,3.14,3.2,2.8.02,2.84.07,2.86,2.87.02,2.98.14,3.09,3.08,3.14.82.01,1.69-.14,2.33.6-.01,2.01-.03,4.02-.04,6.03-.04.06-.07.12-.11.18-.55.49-1.24.39-1.9.41q-3.3.07-3.36,3.44c-.01.78.07,1.59-.61,2.2-1.98.58-3.97.55-5.95.03-.92-.81-.64-1.9-.66-2.9-.05-2.52-.25-2.74-2.78-2.76-.86,0-1.74.08-2.56-.3-.13-.07-.24-.16-.32-.28-.52-1.06-.31-2.2-.35-3.31-.07-1.65-.45-2.05-2.09-2.1-.79-.02-1.58-.02-2.37-.03-1.04-.02-1.5-.53-1.51-1.55-.01-.75-.01-1.49-.03-2.24-.04-1.73-.43-2.12-2.14-2.18-1.07-.04-2.17.16-3.2-.31-.13-.07-.24-.17-.32-.3-.5-1.02-.3-2.12-.34-3.19-.06-1.72-.46-2.17-2.14-2.19-4.11-.05-3.82.24-3.87-3.88-.02-1.68-.47-2.1-2.19-2.12-2.37-.03-4.73,0-7.1-.01-.66,0-1.33.01-1.96-.27-.14-.06-.25-.14-.35-.24-.4-.68-.38-1.43-.38-2.18q-.03-3.25-3.36-3.31c-.65-.01-1.34.09-1.9-.41-.04-.06-.07-.12-.11-.18,0-3.7,0-7.4-.03-11.1,0-.7.19-.95.91-.92,1.41.05,2.83.05,4.24,0,.76-.03.89.29.87.95-.04,1.41.02,2.83-.03,4.24-.02.67.22.85.86.84,1.41-.04,2.83.02,4.24-.03.69-.02.96.16.93.9-.05,1.37.02,2.75-.03,4.12-.02.7.09,1.06.93,1.02,1.41-.07,2.83-.05,4.24,0,.65.02.88-.17.85-.84-.05-1.33.06-2.67-.04-3.99-.08-1.05.34-1.25,1.26-1.2,1.33.07,2.66,0,3.99.03.6.02.79-.2.78-.79-.02-1.75,0-3.49,0-5.24.04-.07.09-.13.13-.2,1.88-.7,3.79-.47,5.7-.14.14.05.26.12.36.22.63,1.07.36,2.26.4,3.41.06,1.75.38,2.08,2.15,2.1.33,0,.66,0,.99,0,1.07-.02,1.59-.57,1.61-1.63.02-.7,0-1.41.02-2.11.02-.53-.01-1.09.41-1.52.06-.03.12-.06.18-.1Z"/>
  <path d="m66.03,77.99c-2.01.01-4.02.03-6.03.04-.4-.35-.58-.79-.58-1.32,0-.37-.02-.75-.02-1.12-.02-2.84-.65-3.36-3.44-2.92-.77.12-1.2.52-1.29,1.29-.02.17-.02.33-.03.5-.12,2.64.16,2.91,2.82,2.95.89.01,1.86-.23,2.57.59,0,1.71-.05,3.42,0,5.12.02.72-.22.93-.92.9-1.41-.05-2.83.02-4.25-.03-.65-.02-.88.17-.86.84.05,1.46.05,2.92,0,4.37-.02.7.28.82.89.81,1.37-.03,2.75.04,4.12-.03.85-.04,1.06.27,1.02,1.06-.06,1.33-.06,2.67,0,4,.04.78-.21.99-.98.98-3.33-.04-6.66,0-10-.03-.79,0-1.1.17-1.06,1.02.07,1.37,0,2.75.03,4.12.01.61-.11.89-.81.88-3.46-.03-6.91-.03-10.37,0-.67,0-.85-.22-.84-.86.04-1.46-.01-2.92.02-4.37.01-.59-.18-.8-.78-.79-1.46.03-2.92-.02-4.37.02-.63.02-.89-.14-.87-.83.05-1.46.05-2.92,0-4.37-.02-.69.27-.83.88-.82,1.42.03,2.83-.03,4.25.03.73.03.92-.24.9-.93-.05-1.37.03-2.75-.03-4.12-.03-.77.2-.99.97-.98,3.33.04,6.66,0,10,.03.78,0,1.11-.16,1.06-1.02-.07-1.33-.07-2.67,0-4,.05-.86-.28-1.05-1.06-1.02-1.37.06-2.75-.02-4.12.03-.67.02-.86-.21-.84-.86.04-1.41.05-2.83,0-4.25-.02-.7.18-.95.9-.92,1.29.05,2.58-.04,3.87.03.93.05,1.35-.16,1.26-1.2-.1-1.24.04-2.5-.04-3.75-.06-.91.27-1.09,1.12-1.09,7.21.03,14.41,0,21.62.04,1.03,0,1.36-.24,1.3-1.29-.09-1.58-.01-3.16,0-4.75.05-.07.09-.13.14-.2,1.97-.64,3.94-.61,5.9,0,.58.6.54,1.36.55,2.11.02,2.41,0,4.82.02,7.22,0,.79-.04,1.7.87,2.03,1.07.39,2.22.46,3.25-.13.66-.37.63-1.13.63-1.79.02-2.41,0-4.82.01-7.22,0-.71,0-1.42.38-2.05.96-.83,2.13-.48,3.22-.56.81-.06,1.8.16,2.17-.8.41-1.06.4-2.2-.05-3.27-.24-.56-.83-.64-1.38-.67-.83-.04-1.66.01-2.48-.05-.58-.04-1.16-.11-1.53-.67-.57-1.79-.32-3.62-.21-5.44.03-.56.4-.89.96-.99.41-.08.83-.1,1.24-.1,4.86-.02,9.72-.03,14.58,0,2.07.02,2.32.25,2.32,2.3,0,1.44.29,2.91-.35,4.3-.8.84-1.85.59-2.82.61-2.47.06-2.79.36-2.8,2.84,0,4.12,0,8.23,0,12.35,0,.75.04,1.5-.36,2.19-.37.47-.9.55-1.44.6-.5.04-.99.03-1.49.03-2.48.01-3.45,1.46-2.58,3.8.26.69.81.9,1.47.94.79.05,1.57,0,2.36.04.62.03,1.25.07,1.69.62.53,2.01.57,4.01-.03,6-.58.62-1.35.57-2.09.58-2.41.03-4.81,0-7.22.02-1.83.02-2.23.47-2.31,2.3-.05,1.1.25,2.26-.52,3.25-.46.33-.99.41-1.54.42-3.03.04-6.07.04-9.1,0-.46,0-.92-.04-1.29-.37-.05-.07-.1-.13-.14-.2,0-2.01,0-4.02,0-6.03.03-.06.06-.12.09-.17.96-.72,2.07-.37,3.12-.41,1.84-.08,2.13-.34,2.15-2.21,0-.33-.01-.66,0-.99.05-1.1-.49-1.56-1.57-1.59-1.27-.04-2.57.21-3.8-.3-.12-.06-.22-.15-.29-.26-.54-1.15-.28-2.37-.34-3.56-.07-1.46-.42-1.81-1.89-1.86-.37-.01-.75,0-1.12,0-1.19-.02-1.7.57-1.77,1.75-.07,1.17.34,2.42-.41,3.51-.06.03-.12.06-.18.09Z"/>
  <path d="m210,221.96c-1.7,0-3.41-.02-5.11.03-.7.02-.95-.18-.92-.9.05-1.33-.03-2.66.03-3.99.04-.82-.14-1.15-1.06-1.14-5.32.05-10.64.04-15.96,0-.86,0-1.02.29-1.01,1.07.03,3.66,0,7.31,0,10.97-.04.07-.09.13-.13.2-1.9.63-3.8.63-5.7,0-.04-.07-.09-.13-.13-.2,0-3.66-.03-7.32,0-10.98,0-.79-.17-1.1-1.02-1.06-1.37.07-2.74-.02-4.11.03-.74.03-.9-.24-.89-.93.03-3.7.03-7.4.03-11.1.04-.06.08-.13.12-.19.81-.61,1.76-.38,2.66-.4,2.2-.06,2.57-.39,2.58-2.53.01-3.91.01-7.82,0-11.73,0-2.09-.4-2.48-2.48-2.51-.17,0,.04,0-.12,0-3.39-.04-3.4-.04-3.39-3.49,0-1.03-.15-2.09.31-3.08.07-.14.18-.25.31-.33.86-.43,1.79-.32,2.7-.34,2.29-.04,2.65-.4,2.67-2.73.01-2.42-.03-4.83.02-7.25.04-1.72.28-1.95,1.97-2,1.21-.04,2.42-.06,3.62.02,1.24.08,1.52.35,1.57,1.62.1,2.54.02,5.08.04,7.62.02,2.32.39,2.68,2.68,2.72.91.02,1.84-.11,2.69.36.47.37.55.9.6,1.44.04.45.03.91.03,1.37.01,2.64.43,3.02,3.07,2.82,1.2-.09,1.6-.49,1.68-1.71.05-.74,0-1.49.03-2.24.03-.62.07-1.25.62-1.69,2-.54,3.99-.56,5.99.02.46.37.54.91.58,1.45.04.54.03,1.08.03,1.61.02,2.18.38,2.55,2.52,2.56,2.32.02,4.63-.01,6.95.02.61,0,1.25-.06,1.77.4.04.06.08.13.12.19,0,1.66.05,3.32,0,4.98-.02.78.16,1.1,1.02,1.06,1.41-.07,2.82,0,4.23-.03.59-.01.79.19.78.78-.03,1.41.04,2.82-.03,4.23-.04.85.28,1.04,1.06,1.02,1.66-.05,3.32,0,4.98,0,.07.04.13.09.2.13.69,1.9.49,3.82.12,5.74-.06.14-.15.26-.27.35-1.05.56-2.19.33-3.3.37-1.71.07-2.1.44-2.14,2.18-.02.71.01,1.41-.03,2.12-.08,1.34-.32,1.59-1.63,1.68-.83.06-1.66,0-2.49.04-1.35.07-1.75.49-1.84,1.83-.08,1.15.17,2.33-.29,3.45-.06.13-.14.25-.26.33-.88.49-1.85.36-2.8.37-2.41.03-2.62.25-2.67,2.62-.02.89.22,1.84-.41,2.64-.06.04-.12.07-.18.11Z"/>
  <path d="m24,120.02c0-1.71-.02-3.42.04-5.12.02-.72-.22-.93-.92-.9-1.37.05-2.75-.03-4.12.02-.78.03-.99-.23-.98-.99.04-3.25.01-6.5.01-9.75,0-8,.02-16-.02-23.99,0-1.04.25-1.33,1.3-1.3,3.25.07,6.5.05,9.75.01.74,0,1.04.15,1,.96-.07,1.37-.07,2.75,0,4.12.04.82-.29.97-1.01.95-1.37-.05-2.75.03-4.12-.03-.73-.03-.9.24-.9.93.02,5.42.02,10.83,0,16.25,0,.65.18.88.84.85,1.33-.05,2.67.04,4-.03.92-.05,1.21.21,1.19,1.17-.06,3.25,0,6.5-.04,9.75-.01.85.18,1.18,1.09,1.12,1.24-.08,2.5.06,3.75-.04,1.04-.08,1.25.33,1.2,1.26-.07,1.29.02,2.58-.03,3.87-.03.72.23.91.92.9,3.33-.03,6.67.02,10-.03.87-.01,1.17.21,1.11,1.1-.08,1.2.05,2.42-.04,3.62-.08,1.01.19,1.35,1.27,1.33,3.16-.08,6.33.02,9.5-.05,1.08-.03,1.34.32,1.27,1.33-.09,1.29-.06,2.58,0,3.87.02.67-.23.85-.86.84-1.42-.04-2.83.02-4.25-.02-.7-.02-.93.2-.92.91.04,1.71,0,3.42,0,5.12-.04.06-.08.13-.12.19-.86.62-1.84.37-2.78.4-2.01.07-2.41.44-2.45,2.42-.02.79.02,1.58-.08,2.37-.07.54-.29,1.04-.86,1.07-1.93.12-3.88.49-5.77-.29-.54-.62-.51-1.38-.51-2.13-.02-2.41,0-4.82-.01-7.23,0-.8,0-1.7-.92-1.99-1.07-.34-2.23-.45-3.25.2-.59.37-.57,1.07-.58,1.7-.02,2.45,0,4.91-.01,7.36,0,.71,0,1.42-.45,2.03-.79.63-1.74.48-2.64.49-2.66.04-2.89.26-2.9,2.96,0,2.17.02,4.33-.01,6.5,0,.62.06,1.26-.4,1.78-.06.04-.13.08-.19.12-3.7,0-7.41,0-11.11.03-.7,0-.92-.19-.92-.9.02-11.4.02-22.8,0-34.2,0-.7.2-.93.91-.91,1.7.04,3.41,0,5.12,0,.5.41.59.97.6,1.57.01.79-.02,1.58.03,2.37.05.68.32,1.24,1.05,1.37.86.15,1.74.14,2.61,0,.55-.09.9-.44.99-.99.14-.87.15-1.75,0-2.61-.13-.73-.68-1-1.37-1.05-.79-.05-1.58-.02-2.37-.03-.6,0-1.16-.1-1.58-.6Z"/>
  <path d="m60.01,38.99c0,6.62-.02,13.24.02,19.86,0,.93-.22,1.18-1.17,1.17-13.24-.03-26.48-.03-39.73,0-.98,0-1.14-.32-1.14-1.2.03-13.2.03-26.4,0-39.6,0-.97.24-1.24,1.23-1.24,13.2.03,26.4.04,39.6,0,1.03,0,1.21.33,1.2,1.26-.04,6.58-.02,13.16-.02,19.74Z"/>
  <path d="m95.99,222.01c1.7,0,3.41.02,5.11-.03.71-.02.94.21.91.91-.05,1.37.02,2.75-.03,4.12-.03.73.14,1.04.95,1,1.41-.07,2.83-.05,4.24,0,.67.02.84-.22.83-.86-.02-3.45-.03-6.9,0-10.35,0-.7-.28-.82-.88-.81-1.41.03-2.83-.03-4.24.02-.72.03-.92-.23-.9-.92.05-1.41.04-2.83,0-4.24-.02-.63.16-.86.83-.86,7.44.02,14.89.02,22.33,0,.78,0,.86.33.86.97-.01,1.7.03,3.41.06,5.11-.57.53-1.27.55-1.99.55-2.41.01-4.82-.02-7.23.01-1.78.02-2.2.45-2.22,2.23-.02,2.16-.04,4.32,0,6.49.03,1.61.53,2.02,2.3,2.03,1.88.01,2.37-.39,2.44-2.02.04-.87-.02-1.75.07-2.62.05-.57.21-1.13.86-1.21,1.69-.22,3.39-.24,5.09,0,.21.03.35.22.5.36.5.38.72.89.71,1.51,0,.37.01.75.02,1.12.02,2.71.83,3.36,3.54,2.8.12-.03.25-.04.36-.1,1.34-.76.78-2.05.82-3.15.04-.88-.5-1.37-1.39-1.44-.79-.06-1.58-.04-2.37-.03-.71,0-1.31-.2-1.74-.79-.74-1.43-.62-4.81.2-5.8,3.62,0,7.25-.04,10.87,0,.86,0,1.17-.19,1.12-1.09-.08-1.33,0-2.67-.03-4-.02-.67.13-.95.88-.95,3.41.04,6.83.04,10.24,0,.72,0,.92.23.9.92-.05,1.41-.04,2.83,0,4.25.02.64-.18.88-.84.85-1.33-.04-2.67.04-4-.03-.89-.05-1.27.15-1.2,1.14.09,1.28-.03,2.58.04,3.87.05.85-.27,1.05-1.06,1.02-1.37-.06-2.75.01-4.12-.03-.65-.02-.85.19-.85.85.03,3.46.03,6.91,0,10.37,0,.71.29.82.89.81,1.37-.03,2.75.04,4.12-.03.85-.04,1.05.27,1.02,1.06-.06,1.37-.05,2.75,0,4.12.02.66-.21.85-.85.84-3.41-.03-6.83-.03-10.24,0-.69,0-.95-.17-.93-.9.05-1.37-.02-2.75.03-4.12.02-.72-.12-1.02-.94-1.01-7.37.03-14.74.03-22.11,0-.78,0-1.01.21-.97.98.06,1.41,0,2.83.03,4.25.01.58-.15.82-.77.8-1.5-.04-3-.04-4.5,0-.63.02-.76-.25-.75-.81.03-1.46-.02-2.92.02-4.37.02-.67-.22-.85-.86-.84-1.41.04-2.83-.02-4.25.02-.7.02-.93-.19-.92-.91.04-3.71.03-7.41.03-11.12l-.04.04Z"/>
  <path d="m239.98,39.02c0,6.58-.03,13.16.03,19.74,0,1.08-.32,1.28-1.32,1.27-13.12-.04-26.23-.04-39.35,0-1.08,0-1.37-.24-1.37-1.35.04-13.12.05-26.23,0-39.35,0-1.15.35-1.34,1.39-1.33,13.12.04,26.23.04,39.35,0,1.03,0,1.31.24,1.31,1.29-.05,6.58-.03,13.16-.03,19.74Z"/>
  <path d="m60.01,218.98c0,6.62-.02,13.24.02,19.86,0,.95-.25,1.16-1.18,1.16-13.24-.03-26.48-.03-39.72,0-.99,0-1.14-.32-1.14-1.2.03-13.2.03-26.4,0-39.6,0-.99.28-1.24,1.25-1.24,13.2.03,26.4.04,39.6,0,1.07,0,1.19.39,1.18,1.28-.03,6.58-.02,13.16-.02,19.74Z"/>
  <path d="m78.03,30.03c0-3.7,0-7.41-.03-11.11,0-.71.2-.92.91-.92,3.41.03,6.83.04,10.24,0,.76,0,.89.3.87.96-.04,1.37.04,2.75-.03,4.12-.04.81.26.96,1,.95,5.37-.03,10.74-.03,16.11,0,.69,0,.95-.17.92-.9-.05-1.37.02-2.75-.03-4.12-.02-.72.12-1.02.94-1.01,7.37.03,14.73.03,22.1,0,.75,0,1.02.18.99.97-.06,1.37-.07,2.75,0,4.12.04.83-.29.95-1.01.94-3.29-.03-6.58.02-9.86-.04-.95-.02-1.18.25-1.16,1.18.05,3.62.01,7.24,0,10.86-.04.06-.08.13-.13.19-.9.64-1.93.36-2.91.4-1.84.08-2.29.49-2.32,2.31-.03,2.58.03,5.16-.03,7.74-.04,1.63-.29,1.87-1.92,1.93-1.12.04-2.25.04-3.37,0-1.61-.07-1.83-.31-1.9-1.95-.03-.58,0-1.17-.02-1.75-.05-1.77-.49-2.22-2.23-2.27-.79-.02-1.58,0-2.37-.05-.85-.05-1.3-.48-1.34-1.33-.08-1.5-.08-3,0-4.49.05-.86.51-1.26,1.35-1.32.92-.06,1.83,0,2.75-.07,1.4-.1,1.82-.64,1.84-2.27.02-1.75-.39-2.38-1.78-2.43-2.37-.09-4.75-.08-7.12,0-1.33.04-1.8.57-1.84,2-.06,2.58.01,5.16-.03,7.74-.03,1.95-.25,2.18-2.16,2.2-3.04.04-6.08.05-9.12,0-1.62-.03-1.87-.29-1.92-1.92-.07-2.58,0-5.16-.03-7.74-.02-1.83-.48-2.23-2.32-2.31-.98-.04-2.01.24-2.91-.4-.04-.06-.08-.13-.13-.19Z"/>
  <path d="m89.99,168.01c1.66,0,3.33-.06,4.99,0,.82.03,1.05-.23,1.04-1.04-.04-3.29,0-6.58-.04-9.87-.01-.84.16-1.19,1.08-1.13,1.33.08,2.67.07,3.99,0,.8-.04.97.26.96,1-.04,3.33,0,6.66-.03,9.99-.01.81.2,1.09,1.03,1.05,1.33-.07,2.66.02,3.99-.03.73-.03,1.05.13,1.01.95-.07,1.37-.07,2.75,0,4.12.04.8-.25.97-.99.96-3.33-.04-6.66,0-9.99-.03-.81-.01-1.09.2-1.05,1.03.07,1.33.05,2.66,0,3.99-.03.72.13,1.01.94,1.01,9.37-.03,18.73-.03,28.1,0,.76,0,1-.19.98-.97-.04-3.29.01-6.58-.04-9.87-.01-.88.14-1.28,1.14-1.2,1.33.1,2.66.06,3.99,0,.72-.03.91.23.9.92-.03,5.37-.04,10.74,0,16.11,0,.89-.34,1-1.09.99-3.25-.03-6.49.03-9.74-.04-1.03-.02-1.26.32-1.21,1.26.07,1.29-.02,2.58.03,3.87.03.71-.2.92-.91.91-3.7-.04-7.41-.03-11.11-.04,0,0,.04.04.04.04,0-1.7-.04-3.41,0-5.11.02-.69-.18-.93-.9-.92-3.41.04-6.81.05-10.22,0-.86-.01-.91.37-.91,1.04.02,3.28-.03,6.56.03,9.84.02.95-.26,1.2-1.18,1.16-1.62-.08-3.24-.03-4.86-.04l.04.04c0-3.52-.06-7.04,0-10.56.02-1.14-.16-1.62-1.45-1.49-1.52.15-3.06.03-4.59.02-.07-.05-.13-.09-.2-.14-.63-1.97-.61-3.94,0-5.91.93-.79,2.05-.51,3.11-.54,2.09-.06,2.47-.41,2.48-2.49.02-2.33-.01-4.65.02-6.98,0-.61-.06-1.26.4-1.78.06-.04.13-.08.19-.12Z"/>
  <path d="m168.01,203.97c0,3.66-.04,7.32,0,10.97,0,.79-.17,1.07-1.02,1.06-3.32-.05-6.65-.05-9.98,0-.82.01-1.04-.23-1.04-1.04.03-5.28,0-10.56.04-15.84,0-.95-.26-1.2-1.18-1.16-1.62.07-3.24,0-4.86,0-.07-.04-.13-.09-.2-.13-.69-1.91-.5-3.83-.11-5.76.07-.14.16-.26.29-.34.65-.36,1.36-.35,2.06-.36,2.37-.01,4.74,0,7.11-.01.79,0,1.7.03,2.01-.89.36-1.07.44-2.22-.16-3.26-.29-.51-.89-.57-1.44-.59-.95-.05-1.91.02-2.87-.08-.53-.05-1.1-.22-1.14-.78-.15-1.88-.53-3.79.24-5.64.06-.04.13-.08.19-.12,1.62,0,3.25-.07,4.86,0,.93.04,1.18-.22,1.18-1.16-.05-5.2,0-10.4-.05-15.6-.01-1.06.29-1.3,1.31-1.28,3.58.07,7.15.04,10.73.04.06.04.13.08.19.12.76,1.85.4,3.76.23,5.64-.05.57-.62.72-1.15.77-.96.09-1.92.01-2.87.08-1.25.09-1.69.55-1.78,1.8-.03.42-.02.83,0,1.25.06,1.04.62,1.59,1.66,1.66,1,.07,2,0,3,.09.65.06,1.14.32,1.22,1.02.16,1.54.14,3.07.02,4.61-.03.41-.28.68-.56.94l.04-.04c-.74.87-1.76.6-2.69.63-2.34.06-2.7.38-2.7,2.68,0,2-.03,4,.01,6,.04,1.55.51,2.01,2.03,2.08.87.04,1.75,0,2.62.07.79.06,1.23.47,1.26,1.26.12,3.37.09,6.75.02,10.12,0,.49-.22.88-.59,1.19l.04-.03c-2.01.01-4.02.03-6.03.04-.4-.35-.58-.79-.58-1.32,0-.37-.02-.75-.02-1.12-.02-2.84-.65-3.36-3.44-2.92-.77.12-1.2.52-1.29,1.29-.02.17-.02.33-.03.5-.12,2.64.16,2.91,2.82,2.95.89.01,1.86-.23,2.57.59Z"/>
  <path d="m233.97,71.99c1.71,0,3.41.05,5.12,0,.71-.02.91.22.9.92-.02,11.41-.02,22.82,0,34.23,0,.75-.28.9-.95.88-1.37-.04-2.75-.06-4.12,0-.8.04-.97-.25-.96-1,.04-3.29-.02-6.58.04-9.87.02-.93-.22-1.22-1.17-1.17-1.62.08-3.25,0-4.87,0,0,0,.04.04.04.04,0-1.71.02-3.41-.03-5.12-.02-.71.21-.93.91-.91,1.41.05,2.83,0,4.24.03.63.02.89-.14.87-.82-.05-1.41-.06-2.83,0-4.24.03-.78-.21-.98-.98-.97-3.24.04-6.49-.02-9.74.04-1,.02-1.35-.19-1.33-1.27.08-3.24,0-6.49.05-9.73.01-.83-.24-1.04-1.05-1.03-3.33.04-6.66.05-9.98,0-.88-.01-1.03.32-1,1.08.05,1.33-.03,2.66.03,3.99.04.8-.25.98-.99.96-1.66-.04-3.33,0-4.99.01,0,0,.04.03.04.03-.02-3.79-.04-7.57-.08-11.36,0-.56.21-.75.73-.7.16.02.33,0,.5,0,9.16,0,18.32.02,27.49-.02,1.03,0,1.37.23,1.31,1.29-.09,1.58-.01,3.16,0,4.75-.35.4-.79.58-1.33.58-.42,0-.83.02-1.25.02-2.66.01-3.46,1.08-2.75,3.69.02.08.03.17.07.24.83,1.35,2.15.75,3.29.78.84.02,1.24-.58,1.29-1.39.05-.79.02-1.58.03-2.37,0-.6.09-1.16.6-1.57Z"/>
  <path d="m66.03,179.97c-3.66,0-7.32.04-10.99,0-.8,0-1.09.2-1.05,1.03.07,1.33.07,2.67,0,3.99-.05.87.3,1.04,1.07,1.01,1.37-.05,2.75.02,4.12-.03.66-.02.86.21.84.85-.04,1.46-.03,2.91,0,4.37.01.58-.16.8-.77.8-5.49-.02-10.99-.02-16.48,0-.61,0-.78-.22-.77-.8.03-1.46.04-2.91,0-4.37-.02-.64.17-.88.84-.86,1.41.04,2.83-.02,4.24.02.67.02.95-.13.94-.88-.04-3.41-.03-6.82,0-10.24,0-.71-.21-.93-.91-.91-1.7.04-3.41,0-5.12,0-.07-.04-.13-.09-.2-.13-.7-1.88-.48-3.79-.14-5.7.05-.14.13-.26.23-.36,1.04-.61,2.18-.34,3.29-.41.78-.04,1.74.12,2.02-.83.33-1.11.44-2.31-.16-3.39-.32-.57-.99-.51-1.58-.55-1.19-.08-2.42.22-3.55-.39-.11-.11-.2-.23-.25-.38-.24-.55-.25-1.13-.26-1.71-.02-2.77-.02-5.53,0-8.3,0-.66.01-1.33.4-1.91,1.98-1,4.05-.56,6.09-.33.55.06.64.7.68,1.22.08.87.02,1.75.07,2.62.09,1.37.56,1.82,1.94,1.92,1.15.08,2.34-.19,3.44.38.75.73.58,1.68.59,2.56.04,2.94.13,3.04,3.09,3.06.78,0,1.57-.05,2.3.34.13.09.23.2.3.34.39,1.93.65,3.86-.14,5.76-.43.58-1.02.81-1.74.78-.33-.01-.67,0-1,0-2.63.01-3.47,1.16-2.72,3.71.02.08.04.17.08.24.8,1.29,2.08.73,3.18.77.89.03,1.34-.57,1.39-1.44.05-.79.03-1.58.03-2.37,0-.66.18-1.23.73-1.64,1.9-.88,3.85-.57,5.79-.19.15.08.27.18.35.32.29.53.33,1.11.34,1.69.02,2.82.02,5.65,0,8.47,0,.57.03,1.17-.39,1.66-.07.05-.13.09-.2.14Z"/>
  <path d="m90.08,132.06c-.02-3.66-.08-7.31-.05-10.97,0-.87-.22-1.17-1.1-1.11-1.03.08-2.08.02-3.12.02q-1.8,0-1.8-1.74c0-1.12-.04-2.25.01-3.37.04-.72-.22-.93-.92-.91-1.37.05-2.75-.03-4.12.02-.78.03-.99-.26-.98-1,.03-3.33-.02-6.65.04-9.98.01-.83-.21-1.08-1.02-1.04-1.41.06-2.83,0-4.24.03-.6.01-.79-.2-.78-.79.04-1.75.02-3.49.03-5.24.05-.07.09-.13.14-.2.37-.33.83-.36,1.29-.37,3.04-.05,6.08-.04,9.12,0,.5,0,1,.09,1.44.35.64.56.59,1.34.6,2.08.03,2.45-.01,4.9.02,7.35.02,1.79.48,2.19,2.38,2.19,1.89,0,2.32-.4,2.37-2.21.02-.79,0-1.58.05-2.37.05-.91.51-1.34,1.42-1.38.87-.04,1.75,0,2.62-.05,1.41-.07,1.84-.5,1.91-1.9.04-.71,0-1.41.04-2.12.03-.58.09-1.17.58-1.59.56-.33,1.18-.36,1.8-.37,2.77-.02,5.54-.03,8.31,0,.7,0,1.43-.03,1.93.62,0,0-.03-.04-.03-.04,0,.96.24,2-.06,2.85-.35.98-1.63.56-2.46.86-2.91,1.05-6.57,5.13-6.42,9.16.05,1.41-.05,2.83-.02,4.24.01.68-.17.92-.9.93-2.12.02-2.12.06-2.12,2.15,0,5.28-.01,10.56-.02,15.84l.04-.04c-1.99.02-3.99.03-5.98.05l.04.03Z"/>
  <path d="m155.91,155.88c2.32-1.77,2.93-4.28,3.04-7,.05-1.33.05-2.66,0-3.99-.02-.71.22-.92.92-.91,2.37.04,4.74-.02,7.1.03.84.02,1.05-.25,1.03-1.05-.05-1.66,0-3.32,0-4.98.04-.06.08-.13.13-.19,1.85-.76,3.76-.43,5.64-.22.76.08.77.89.8,1.52.08,2.08.02,4.16.04,6.24,0,.46,0,.91,0,1.37.02,2.39,1.23,3.26,3.56,2.58.8-.24,1.11-.82,1.17-1.58.07-.95.02-1.91.08-2.87.06-.9.5-1.36,1.41-1.4,1.29-.06,2.58-.06,3.87-.01.52.02.98.18,1.31.6l-.03-.03c.64.5.62,1.23.62,1.93.03,2.36,0,4.73.02,7.09.02,1.9.47,2.35,2.37,2.37,2.36.03,4.73,0,7.09.02.7,0,1.43-.02,1.93.62l-.03-.03c.17.18.43.33.45.57.18,1.86.53,3.74-.29,5.55-.51.44-1.13.49-1.76.5-6.86.03-13.72.03-20.59,0-.67,0-1.35,0-1.81-.62l.03.04c0-1.62-.07-3.25,0-4.86.04-.92-.21-1.19-1.16-1.18-5.03.05-10.06.03-15.09.02-.62,0-1.24-.08-1.86-.12v.02Z"/>
  <path d="m96.03,221.97h-6.04c-.06-.04-.12-.08-.19-.12-.67-.93-.36-2.01-.41-3.02-.08-1.79-.44-2.2-2.23-2.22-2.12-.02-4.23-.02-6.35,0-1.77.02-2.17.43-2.19,2.24-.02,2.41.01,4.81-.02,7.22,0,.61.06,1.26-.4,1.77-.06.04-.12.08-.19.11-3.71,0-7.41,0-11.12.03-.71,0-.93-.22-.91-.92.05-1.41.04-2.83,0-4.25-.02-.64.17-.88.84-.86,1.41.04,2.83-.02,4.25.03.67.02.95-.14.94-.88-.04-3.41-.03-6.83,0-10.25,0-.72-.24-.92-.93-.9-1.41.04-2.83-.02-4.25.02-.65.02-.85-.2-.85-.85.02-5.46.02-10.91,0-16.37,0-.71.3-.81.89-.8,1.42.03,2.83.05,4.25,0,.74-.03.89.27.88.94-.03,3.33.02,6.66-.03,10-.01.89.24,1.15,1.11,1.1,1.33-.07,2.67.01,4-.03.69-.02.95.18.92.9-.05,1.37.02,2.75-.03,4.12-.03.72.13,1.02.94,1.01,3.37-.05,6.75-.05,10.12,0,.79.01.99-.24.97-.99-.06-1.66-.03-3.33-.04-5l-.03.04c1.78-.02,3.57-.02,5.35-.08.94-.03.7.61.7,1.09,0,4.65,0,9.3,0,13.95,0,1,0,1.99-.01,2.99,0,0,.04-.04.04-.04Z"/>
  <path d="m186.01,113.99c-3.66,0-7.32-.01-10.98.03-.79,0-1.1-.18-1.06-1.03.07-1.33.07-2.66,0-3.99-.05-.86.29-1.04,1.07-1.01,1.37.05,2.74-.01,4.12.03.65.02.87-.19.85-.84-.04-1.25-.02-2.49,0-3.74.01-1.62-.17-1.41,1.36-1.42,1.25-.01,2.5-.04,3.74.03.73.04.93-.22.91-.92-.04-1.33.06-2.67-.04-3.99-.07-.98.3-1.19,1.19-1.14,1.33.07,2.66-.01,3.99.03.65.02.92-.19.84-.84-.03-.25-.02-.5,0-.75.08-1.44-.61-3.36.27-4.19.87-.83,2.77-.2,4.21-.22,2.49-.03,4.99-.02,7.48-.03l-.04-.03c.02,1.7.09,3.41.05,5.11-.02.79.23,1,.99.97,1.41-.06,2.83,0,4.24-.03.57-.01.82.15.8.76-.04,1.5-.04,2.99,0,4.49.02.62-.23.77-.8.76-1.46-.03-2.91.02-4.37-.02-.64-.02-.87.18-.85.84.04,1.25.02,2.49,0,3.74-.01,1.62.17,1.41-1.37,1.42-1.25.01-2.5.04-3.74-.01-.72-.03-.92.23-.9.92.04,1.7,0,3.41,0,5.11,0,0,.03-.04.03-.04-.28.32-.61.53-1.05.57-1.31.1-2.62.1-3.93,0-.44-.03-.77-.25-1.05-.57l.04.04c-.41-.34-.61-.77-.61-1.31,0-.42-.02-.83-.02-1.25-.02-2.67-.93-3.38-3.57-2.78-.78.17-1.11.67-1.17,1.41-.06.79-.03,1.58-.04,2.37-.01.6-.11,1.16-.63,1.56l.04-.03Z"/>
  <path d="m71.99,150.02c5.57,0,11.14.01,16.7-.04,1.05-.01,1.34.32,1.33,1.34-.04,5.57-.03,11.14-.03,16.7,0,0,.03-.04.03-.04-.21.19-.38.46-.69.49-1.78.15-3.57.42-5.32-.22-.62-.52-.6-1.25-.61-1.95-.03-2.46,0-4.91-.02-7.37,0-.79.06-1.7-.83-2.06-1.06-.42-2.22-.47-3.26.09-.67.36-.65,1.11-.66,1.78-.02,2.46,0,4.91-.02,7.37,0,.74.04,1.51-.57,2.1-.52.32-1.1.37-1.68.38-2.86.03-5.71.03-8.57,0-.66,0-1.34-.01-1.81-.62l.03.03c-.78-.61-.61-1.49-.63-2.3-.05-2.98-.13-3.06-3.1-3.1-.81-.01-1.69.15-2.3-.63l.03.03c-.19-.21-.46-.38-.49-.69-.15-1.78-.42-3.58.22-5.32.55-.65,1.33-.6,2.06-.61,2.44-.03,4.88.01,7.33-.02,1.76-.02,2.16-.47,2.25-2.22.05-1.01-.25-2.08.4-3.01.06-.04.13-.08.19-.12Z"/>
  <path d="m192.05,65.94c-3.61.02-7.23.08-10.84.05-.96,0-1.31.21-1.24,1.22.09,1.28.07,2.58,0,3.86-.04.8.26.98,1,.96,1.41-.05,2.83,0,4.24-.02.58-.01.8.16.79.77-.02,3.49-.02,6.98,0,10.47,0,.6-.2.79-.79.78-1.74-.04-3.49-.02-5.23-.03l.04.04c0-1.7-.04-3.41,0-5.11.01-.69-.18-.95-.9-.92-1.33.05-2.66-.05-3.98.04-.97.07-1.15-.29-1.15-1.19.04-7.35.02-14.7.02-22.05,0-.25-.02-.5-.03-.75l-.03.04c1.79-.02,3.57-.02,5.36-.08.69-.02.71.35.7.86-.01,1.41.03,2.83-.02,4.24-.02.7.18.95.9.92,1.41-.05,2.83-.06,4.24,0,.75.03.89-.27.88-.94-.03-3.33.02-6.66-.03-9.98-.01-.87.21-1.16,1.1-1.11,1.29.08,2.58.08,3.87,0,.93-.06,1.07.31,1.07,1.14-.03,5.62,0,11.23,0,16.85,0,0,.03-.04.03-.04Z"/>
  <path d="m221.97,162.01c1.75,0,3.49,0,5.24-.03.59-.01.8.18.78.78-.04,1.29.06,2.58-.03,3.87-.07,1.05.17,1.43,1.33,1.39,3.2-.1,6.41,0,9.61-.05.88-.01,1.11.24,1.1,1.11-.04,5.28-.03,10.57,0,15.85,0,.76-.12,1.09-1,1.08-3.33-.05-6.66-.05-9.98,0-.81.01-1.07-.22-1.04-1.04.06-1.66,0-3.33,0-4.99.41-.5.97-.59,1.58-.59.79-.01,1.58.02,2.37-.03.89-.06,1.37-.52,1.43-1.42.01-.17.02-.33.02-.5.08-2.59-1.32-3.58-3.81-2.71-.65.23-.88.72-.93,1.34-.06.79-.02,1.58-.03,2.37,0,.6-.09,1.16-.6,1.57-2.01-.01-4.02-.03-6.03-.04-.07-.05-.13-.09-.2-.14-.44-.53-.38-1.17-.39-1.79-.02-4.7-.02-9.4,0-14.1,0-.62-.06-1.26.39-1.79.07-.05.13-.09.2-.14Z"/>
  <path d="m72.03,60c-1.67,0-3.33-.03-5,.03-.83.03-1.04-.23-1.04-1.04.04-4.5.02-8.99.02-13.49,0-6.79.01-13.58-.02-20.36,0-.84.16-1.19,1.08-1.13,1.33.08,2.67.07,4,0,.81-.04.99.26.96,1-.05,1.37.02,2.75-.03,4.12-.03.71.2.93.91.91,1.71-.04,3.41,0,5.12,0,0,0-.04-.03-.04-.03.52.4.6.97.61,1.57.04,3.08.02,6.16,0,9.23,0,1.24-.53,1.85-1.8,1.82-.66-.02-1.33,0-2,.03-1.64.07-2.15.56-2.17,2.22-.04,3.99,0,7.99-.02,11.98,0,.62,0,1.25-.04,1.87-.03.52-.17.98-.6,1.32l.04-.03Z"/>
  <path d="m132.02,198c0-1.7.02-3.41-.03-5.11-.02-.7.19-.94.9-.92,1.29.05,2.58-.07,3.86.04,1.09.09,1.33-.32,1.27-1.32-.09-1.28,0-2.58-.03-3.86-.02-.65.19-.87.84-.85,1.12.04,2.24.01,3.37.01q1.8,0,1.8-1.86c0-3.03.03-6.07-.02-9.1-.01-.8.19-1.06,1.03-1.05,3.32.05,6.65.05,9.97,0,.83-.01,1.06.25,1.03,1.05-.06,1.66-.03,3.32-.03,4.99l.03-.04c-.74.87-1.75.6-2.68.62-2.4.05-2.71.35-2.72,2.76,0,2.28.01,4.56-.01,6.84,0,.67-.02,1.34-.62,1.8l.03-.03c-.36.46-.85.6-1.42.62-.74.02-1.48.02-2.22.03-1.16.02-1.69.6-1.77,1.76-.08,1.17.32,2.4-.41,3.49-.06.04-.12.07-.18.11h-12.03s.04.03.04.03Z"/>
  <path d="m89.99,221.96c0,5.66,0,11.32.03,16.97,0,.78-.17,1.07-1.02,1.06-3.33-.05-6.66-.05-9.98,0-.84.01-1.04-.26-1.03-1.05.04-3.66.03-7.32.03-10.98,0,0-.03.04-.03.04.74-.86,1.76-.6,2.69-.63,2.32-.06,2.68-.39,2.71-2.69.04-3.31.04-3.35,3.32-3.3,1.12.02,2.36-.38,3.31.62l-.03-.04Z"/>
  <path d="m42,173.97c0,1.75,0,3.49.02,5.24.01.59-.17.79-.78.79-7.48-.02-14.97-.02-22.46,0-.6,0-.79-.19-.78-.78.03-1.41.06-2.83,0-4.24-.05-.91.38-1,1.11-.99,3.12.03,6.24.02,9.36,0,1.87,0,1.53.16,1.54-1.61,0-1.21.03-2.41,0-3.62-.02-.6.2-.79.79-.78,1.75.04,3.49.02,5.24.03.06.04.12.07.18.11.67.92.37,1.99.41,2.99.07,1.87.4,2.19,2.26,2.28,1.07.05,2.26-.37,3.14.62l-.03-.04Z"/>
  <path d="m173.97,36.04c1.7,0,3.41.02,5.11-.03.7-.02.92.2.91.91-.03,3.41-.03,6.82,0,10.23,0,.74-.26.91-.94.88-1.41-.04-2.83.02-4.24-.02-.65-.02-.86.19-.85.84.02,1.74-.02,3.49-.04,5.24,0,0,.03-.04.03-.04-2-.02-3.99-.03-5.99-.05l.04.04c0-1.7-.04-3.4,0-5.11.01-.69-.18-.95-.9-.92-1.41.05-2.82-.02-4.23.03-.73.03-.91-.24-.89-.92.05-1.7.03-3.4.03-5.11.04-.06.08-.13.12-.19.56-.49,1.25-.39,1.9-.4,2.41-.03,4.82.01,7.23-.02,1.64-.02,2.02-.46,2.12-2.09.06-1.06-.27-2.17.41-3.15.06-.04.13-.08.19-.12Z"/>
  <path d="m161.98,24.04c1.71,0,3.41-.04,5.12,0,.7.02.94-.2.91-.91-.05-1.37.02-2.75-.03-4.12-.03-.72.13-1.02.94-1.01,3.41.05,6.82.04,10.23,0,.66,0,.87.19.85.85-.04,1.41-.06,2.83,0,4.24.04.83-.31.96-1.02.93-1.33-.05-2.66.04-3.99-.03-.84-.04-1.03.26-1.02,1.05.03,3.66,0,7.32,0,10.98,0,0,.03-.04.03-.04-.34.42-.79.57-1.31.6-1.24.06-2.49.04-3.73,0-1.01-.03-1.52-.49-1.56-1.52-.03-.83,0-1.66-.06-2.49-.09-1.37-.56-1.84-1.92-1.94-.91-.06-1.82,0-2.73-.09-.53-.05-1.09-.21-1.14-.77-.18-1.88-.53-3.78.22-5.62.07-.05.13-.09.2-.14Z"/>
  <path d="m227.97,95.98c0,3.66-.01,7.33.03,10.99.01.81-.21,1.09-1.04,1.04-1.29-.07-2.58.03-3.87-.04-.85-.04-1.18.17-1.13,1.08.08,1.33,0,2.66.03,4,.02.66-.11.98-.87.95-1.46-.06-2.91-.04-4.37,0-.61.01-.78-.21-.77-.79.02-3.46.02-6.91,0-10.37,0-.64.17-.88.84-.86,1.41.05,2.83-.03,4.25.03.8.03.99-.24.95-1-.07-1.41,0-2.83-.04-4.25-.02-.6.19-.79.78-.78,1.75.03,3.5.02,5.25.02,0,0-.04-.04-.04-.04Z"/>
  <path d="m156.01,228c0-1.75,0-3.49-.03-5.24-.01-.59.17-.79.77-.79,5.49.02,10.97.02,16.46,0,.6,0,.79.19.78.79-.04,1.75-.02,3.49-.03,5.24l.04-.04c-1.7,0-3.4.04-5.11,0-.69-.02-.95.17-.92.9.05,1.41-.02,2.82.03,4.23.03.73-.23.91-.92.9-1.7-.05-3.4-.03-5.11-.03-.06-.03-.12-.07-.18-.1-.65-.84-.39-1.83-.41-2.76-.05-2.22-.29-2.46-2.51-2.51-.93-.02-1.92.24-2.76-.41-.03-.06-.07-.12-.1-.18Z"/>
  <path d="m53.99,138.02c4.01,0,8.02,0,12.04,0,.06.03.12.07.18.1.69.97.36,2.08.41,3.13.08,1.74.4,2.06,2.14,2.14,1.05.05,2.16-.28,3.13.41.03.06.07.12.1.18,0,2.01,0,4.02,0,6.04,0,0,.03-.04.03-.04-.4.52-.97.6-1.56.61-3.02.04-6.05.05-9.07,0-.5,0-.99-.09-1.43-.37-.5-.47-.53-1.1-.56-1.72-.03-.66,0-1.33-.04-1.99-.09-1.3-.55-1.77-1.84-1.87-.87-.07-1.74-.03-2.61-.06-.95-.04-1.45-.47-1.49-1.44-.05-1.28-.06-2.57,0-3.85.02-.52.18-.97.6-1.31l-.04.03Z"/>
  <path d="m204,83.99c-3.7,0-7.39,0-11.09.02-.54,0-.94.01-.93-.75.04-5.77.05-11.54.07-17.32,0,0-.03.04-.03.04,1.54,0,3.08.09,4.62,0,1.05-.05,1.43.17,1.39,1.33-.09,3.2,0,6.4-.05,9.61-.01.87.21,1.14,1.1,1.11,1.66-.06,3.32.01,4.99.03,0,0-.04-.03-.04-.03-.02,2-.03,3.99-.05,5.99l.04-.04Z"/>
  <path d="m78,126.02c1.71,0,3.42.02,5.12-.03.72-.02.93.22.9.92-.05,1.37.03,2.75-.03,4.12-.03.76.18,1.01.97.99,1.7-.05,3.41.02,5.12.04,0,0-.04-.03-.04-.03,0,3.62-.06,7.23,0,10.85.01.97-.29,1.2-1.19,1.15-1.33-.08-2.66-.05-3.99,0-.64.02-.88-.17-.86-.84.05-1.37-.02-2.74.03-4.11.03-.76-.11-1.12-1-1.08-1.66.08-3.32.04-4.99.05l.04.03c-.02-4.02-.03-8.05-.05-12.07l-.04.04Z"/>
  <path d="m210.06,228.04c-.02-2.03-.03-4.05-.05-6.08,0,0-.03.04-.03.04.61-.78,1.49-.61,2.3-.63,2.98-.05,3.06-.13,3.1-3.1.01-.81-.15-1.69.63-2.3l-.04.04c.31-.38.71-.57,1.19-.58,3.32-.08,6.64-.11,9.95.02.25,0,.49.09.72.2.15.06.28.16.39.28.56,1.97.64,3.94-.02,5.9-.07.05-.13.09-.2.14-1.62,0-3.24.06-4.85,0-.9-.04-1.26.16-1.19,1.14.09,1.28-.03,2.57.04,3.85.04.81-.22,1.05-1.03,1.04-3.65-.03-7.3,0-10.95,0l.04.03Z"/>
  <path d="m185.99,32.89c0-2.62.03-5.24-.02-7.86-.02-.84.26-1.06,1.06-1.02,1.37.06,2.75.04,4.12,0,.64-.02.86.17.86.84-.02,5.45-.02,10.9,0,16.35,0,.67-.23.85-.86.83-1.37-.04-2.75-.06-4.12,0-.81.04-1.06-.2-1.05-1.03.05-2.7.02-5.41.02-8.11Z"/>
  <path d="m185.97,228h6.03s-.04-.03-.04-.03c0,3.7,0,7.4.03,11.1,0,.68-.17.93-.89.93-3.41-.03-6.82-.03-10.23,0-.71,0-.92-.22-.9-.92.05-1.7.03-3.41.03-5.11.04-.06.07-.12.11-.18.84-.64,1.82-.38,2.75-.41,2.2-.05,2.46-.32,2.52-2.51.03-.99-.32-2.09.62-2.9l-.04.03Z"/>
  <path d="m233.96,216c1.74,0,3.49,0,5.23-.03.58-.01.8.16.79.77-.02,3.49-.02,6.98,0,10.47,0,.59-.19.79-.78.78-3.49-.02-6.98-.02-10.47,0-.61,0-.78-.21-.77-.79.03-1.74.02-3.49.02-5.23l-.03.04c.6-.78,1.47-.62,2.28-.63,3.05-.04,3.08-.08,3.13-3.13.01-.73-.13-1.5.41-2.13.06-.04.12-.07.18-.11Z"/>
  <path d="m228,198.01c0-1.74,0-3.49-.03-5.23-.01-.58.15-.8.77-.8,3.49.02,6.98.02,10.47,0,.59,0,.79.18.78.78-.02,3.49-.02,6.98,0,10.47,0,.61-.21.78-.79.77-1.74-.03-3.49-.02-5.23-.03-.06-.04-.12-.07-.18-.11-.64-.84-.38-1.82-.41-2.75-.05-2.2-.32-2.46-2.51-2.52-.99-.03-2.09.32-2.9-.62l.03.04Z"/>
  <path d="m26.96,191.99c-2.66,0-5.33-.03-7.99.02-.78.01-1.01-.22-.97-.98.06-1.37.05-2.75,0-4.12-.02-.68.15-.94.89-.93,5.41.03,10.82.03,16.23,0,.71,0,.93.21.91.92-.05,1.33-.06,2.66,0,3.99.04.85-.18,1.15-1.08,1.13-2.66-.06-5.33-.02-7.99-.02Z"/>
  <path d="m233.96,203.97c0,4.01,0,8.02,0,12.04l.03-.04c-.3.37-.7.6-1.17.57-1.63-.11-3.36.59-4.86-.57l.03.03c-.56-.43-.61-1.05-.61-1.68-.04-2.89-.04-5.79,0-8.68,0-.63.05-1.25.61-1.68l-.04.04c.3-.37.7-.6,1.17-.57,1.63.11,3.36-.59,4.86.57l-.03-.04Z"/>
  <path d="m222,132.02c0-3.66.01-7.33-.03-10.99-.01-.81.21-1.08,1.04-1.04,1.66.07,3.33.03,5,.04.07.05.13.1.2.14.39.45.37,1,.38,1.54.03,2.83.03,5.66,0,8.49,0,.67,0,1.35-.62,1.82l.04-.04c-.28.32-.61.53-1.05.57-1.31.1-2.62.1-3.93,0-.44-.03-.77-.25-1.05-.57,0,0,.03.04.03.04Z"/>
  <path d="m167.98,53.99c0,3.66,0,7.31.03,10.97,0,.76-.13,1.12-1,1.07-1.41-.08-2.82-.04-4.24-.01-.6.01-.79-.19-.78-.78.02-3.49.02-6.98,0-10.47,0-.61.22-.78.8-.77,1.74.03,3.49.02,5.23.02,0,0-.04-.04-.04-.04Z"/>
  <path d="m78.03,125.99c-3.66,0-7.31,0-10.97.03-.77,0-1.12-.14-1.07-1.01.07-1.41.04-2.82,0-4.24-.01-.6.19-.78.78-.78,3.49.02,6.98.02,10.47,0,.61,0,.78.22.77.8-.03,1.74-.02,3.49-.02,5.23,0,0,.04-.04.04-.04Z"/>
  <path d="m78.03,185.97c-3.71,0-7.41,0-11.11.03-.71,0-.93-.2-.91-.91.05-1.71.02-3.41.03-5.12l-.03.04c.36-.47.88-.59,1.44-.6,3.12-.05,6.23-.06,9.35,0,.46,0,.91.11,1.3.38.54.57.57,1.29.53,1.99-.07,1.35.34,2.75-.38,4.04-.07.05-.13.1-.2.15Z"/>
  <path d="m150.02,24c-3.66,0-7.31,0-10.97.03-.77,0-1.12-.13-1.07-1.01.07-1.41.04-2.82,0-4.24-.01-.59.19-.79.78-.78,3.49.02,6.98.02,10.47,0,.61,0,.78.22.77.8-.03,1.74-.02,3.49-.02,5.23,0,0,.04-.04.04-.04Z"/>
  <path d="m209.97,234c3.7,0,7.39,0,11.09-.03.67,0,.97.13.94.88-.06,1.45-.04,2.91,0,4.36.01.6-.19.78-.78.78-3.49-.02-6.98-.02-10.47,0-.61,0-.78-.21-.77-.79.04-1.74.02-3.49.03-5.23,0,0-.04.04-.04.04Z"/>
  <path d="m155.99,60.04c0,1.71-.02,3.41.01,5.12.01.62-.15.89-.83.87-1.41-.05-2.83-.05-4.24,0-.68.02-.95-.18-.94-.9.03-3.29.02-6.57,0-9.86,0-.89.32-1.29,1.25-1.26,1.29.05,2.58.05,3.87,0,.73-.03.91.24.9.93-.04,1.7-.01,3.41-.01,5.12Z"/>
  <path d="m203.92,233.92c.02,1.78.03,3.56.08,5.34.01.53-.16.73-.71.72-1.53-.03-3.07-.03-4.6,0-.56.01-.71-.21-.7-.73.02-1.49.04-2.99,0-4.48-.02-.7.28-.82.88-.81,1.7.02,3.4,0,5.1-.02,0,0-.04-.03-.04-.03Z"/>
  <path d="m119.98,36.03c2.01,0,4.03,0,6.04,0,0,0-.04-.03-.04-.03.37.31.56.7.58,1.19.07,1.33.06,2.65,0,3.98-.04.89-.48,1.36-1.39,1.41-1.45.08-2.9.09-4.35,0-.62-.04-1.21-.22-1.3-.92-.22-1.65-.22-3.31,0-4.96.04-.3.3-.49.5-.7l-.04.03Z"/>
  <path d="m215.96,156.01c1.75,0,3.5,0,5.25-.03.6-.01.79.19.78.78-.04,1.75-.02,3.5-.03,5.25l.03-.04c-.18.17-.33.43-.57.45-1.86.17-3.74.54-5.55-.3-.73-2.07-.92-4.12.13-6.15l-.04.03Z"/>
  <path d="m161.98,233.96c0,1.7-.02,3.41.03,5.11.02.69-.16.96-.89.93-1.41-.05-2.82-.05-4.23,0-.73.03-.92-.23-.9-.92.05-1.7.03-3.4.03-5.11.05-.07.09-.13.14-.2,1.98-.54,3.94-.84,5.86.23,0,0-.03-.04-.03-.04Z"/>
  <path d="m20.96,161.99q3.06,0,3.06,3.1,0,2.9-2.88,2.9-3.12,0-3.12-3.03t2.94-2.96Z"/>
  <path d="m36.03,168.01c0-2.01,0-4.02,0-6.04.05-.07.09-.13.14-.2,1.98-.54,3.94-.84,5.86.23l-.04-.04c.32.28.53.61.57,1.05.1,1.31.1,2.62,0,3.93-.03.44-.25.77-.57,1.05l.04-.04c-.28.32-.61.53-1.05.57-1.31.1-2.62.1-3.93,0-.44-.03-.77-.25-1.05-.57,0,0,.03.04.03.04Z"/>
  <path d="m149.93,161.94c.02,1.78.03,3.56.08,5.34.01.53-.16.73-.71.72-1.53-.03-3.07-.03-4.6,0-.56.01-.71-.21-.7-.73.02-1.49.04-2.99,0-4.48-.02-.7.28-.82.88-.81,1.7.02,3.4,0,5.1-.01,0,0-.04-.03-.04-.03Z"/>
  <path d="m71.99,138.02c2.03.01,4.06.02,6.08.04,0,0-.04-.04-.04-.03,0,1.62-.09,3.24,0,4.85.05.98-.29,1.18-1.19,1.14-1.61-.07-3.23-.03-4.85-.04,0,0,.04.03.04.03-.43-.34-.61-.8-.59-1.32.06-1.52-.38-3.07.36-4.54.07-.05.13-.09.2-.14Z"/>
  <path d="m168.01,137.98c-1.71,0-3.41-.02-5.12.03-.7.02-.93-.2-.91-.91.05-1.7.03-3.41.03-5.12.05-.07.09-.13.14-.2,1.98-.54,3.94-.84,5.86.23l-.03-.03c.32.28.53.61.57,1.05.1,1.31.1,2.62,0,3.93-.03.44-.25.77-.57,1.05l.04-.03Z"/>
  <path d="m210.01,233.97c-2.03-.01-4.06-.03-6.09-.04,0,0,.04.03.04.03,0-1.69.05-3.38.02-5.07-.01-.68.16-.95.89-.92,1.73.06,3.46.05,5.19.07,0,0-.04-.03-.04-.03-.01,2-.03,4-.04,6,0,0,.04-.04.04-.04Z"/>
  <path d="m66.03,138.02c0-1.74,0-3.49-.03-5.23-.01-.58.15-.81.77-.8,1.49.04,2.99.04,4.49,0,.61-.01.78.22.77.8-.03,1.74-.02,3.49-.03,5.23,0,0,.03-.04.03-.04-.3.37-.7.6-1.17.57-1.63-.11-3.36.59-4.86-.57,0,0,.03.04.03.04Z"/>
  <path d="m120,171.08c0,2.91,0,2.92-2.87,2.91-.99,0-2.3.32-2.89-.18-.7-.59-.21-1.95-.23-2.97-.04-2.84-.01-2.84,2.8-2.84.04,0,.08,0,.12,0q3.06,0,3.06,3.09Z"/>
  <path d="m228,120.02c0-1.7.02-3.4-.03-5.1-.02-.68.15-.96.89-.93,1.41.05,2.82.05,4.23,0,.73-.03.92.24.9.93-.05,1.7-.02,3.4-.03,5.1,0,0,.03-.04.03-.04-.28.32-.61.53-1.05.57-1.31.1-2.62.1-3.93,0-.44-.03-.77-.25-1.05-.57l.03.04Z"/>
  <path d="m59.94,113.94c.02,1.78.03,3.56.08,5.34.01.53-.16.73-.71.72-1.53-.03-3.07-.03-4.6,0-.56.01-.71-.21-.7-.73.02-1.49.04-2.99,0-4.48-.02-.7.28-.81.88-.81,1.7.02,3.4,0,5.1-.02l-.04-.03Z"/>
  <path d="m173.97,228c2.01,0,4.03,0,6.04,0l-.04-.03c.32.28.53.61.57,1.05.1,1.31.1,2.62,0,3.93-.03.44-.25.77-.57,1.05,0,0,.04-.03.04-.03-1.61,0-3.22-.04-4.82.03-.94.04-1.22-.34-1.2-1.21.04-1.61.02-3.22.02-4.82,0,0-.04.04-.04.04Z"/>
  <path d="m221.97,179.97c0,1.75-.01,3.5.02,5.24.01.6-.19.79-.78.78-1.75-.03-3.5-.02-5.24-.02,0,0,.04.03.04.03-.61-.47-.6-1.15-.62-1.81-.02-1.12-.05-2.24.04-3.36.05-.56.15-1.16.79-1.27,1.73-.3,3.47-.29,5.2,0,.25.04.4.29.58.46,0,0-.03-.04-.03-.04Z"/>
  <path d="m36.04,161.98c-1.65,0-3.31-.03-4.96.03-.83.03-1.07-.31-1.06-1.07.03-1.65.01-3.31.02-4.96,0,0-.03.04-.03.04.47-.61,1.15-.6,1.81-.62,1.12-.02,2.24-.05,3.36.04.56.05,1.16.15,1.27.79.3,1.73.29,3.47,0,5.2-.04.25-.29.4-.46.58,0,0,.04-.03.04-.03Z"/>
  <path d="m83.99,185.97c0,1.74,0,3.49.02,5.23.01.58-.15.81-.77.8-1.49-.04-2.99-.04-4.48,0-.61.01-.78-.22-.76-.8.03-1.74.02-3.49.03-5.23,0,0-.03.04-.03.04.3-.37.7-.6,1.17-.57,1.63.11,3.36-.59,4.86.57,0,0-.03-.04-.03-.04Z"/>
  <path d="m107.99,191.97c0,1.7-.02,3.4.03,5.1.02.67-.15.96-.88.93-1.45-.05-2.9-.04-4.35,0-.59.01-.79-.19-.78-.78.03-1.49.04-2.99,0-4.48-.02-.62.24-.76.8-.76,1.74.03,3.48.02,5.23.02,0,0-.04-.04-.04-.04Z"/>
  <path d="m72.03,95.99c-1.74,0-3.49,0-5.23.03-.58.01-.81-.15-.8-.77.04-1.49.04-2.99,0-4.49-.01-.61.22-.78.8-.77,1.74.03,3.49.02,5.23.03,0,0-.04-.03-.04-.03.32.28.53.61.57,1.05.1,1.31.1,2.62,0,3.93-.03.44-.25.77-.57,1.05l.04-.03Z"/>
  <path d="m89.99,197.97c-.01,2.03-.03,4.06-.04,6.09,0,0,.04-.04.03-.04-1.66,0-3.32-.07-4.97-.01-.84.03-1.05-.26-1.02-1.05.06-1.32.07-2.65,0-3.98-.05-.87.3-1.03,1.07-1,1.66.05,3.31.02,4.97.03,0,0-.04-.04-.04-.04Z"/>
  <path d="m117.01,197.95c.95.04,2.19-.26,2.76.22.67.58.2,1.87.22,2.85.02.94.41,2.15-.17,2.76-.59.62-1.81.16-2.75.2-.79.03-1.58-.02-2.37.01-.55.02-.72-.19-.71-.72.03-1.49.04-2.99,0-4.48-.02-.71.3-.83.9-.81.7.03,1.41,0,2.12,0,0-.01,0-.03,0-.04Z"/>
  <path d="m156.01,233.96c-1.7,0-3.4-.02-5.1.03-.7.02-.94-.2-.92-.91.04-1.41.04-2.82-.01-4.23-.03-.74.26-.9.93-.88,1.7.04,3.4.02,5.1.03l-.04-.03c.37.3.6.7.57,1.17-.11,1.63.59,3.36-.57,4.86l.04-.03Z"/>
  <path d="m149.98,197.97c0,1.7-.02,3.4.03,5.11.02.69-.17.95-.89.92-1.41-.05-2.82-.05-4.23,0-.73.03-.91-.24-.89-.93.05-1.7.02-3.4.03-5.11l-.03.04c.3-.37.7-.6,1.17-.57,1.63.11,3.36-.59,4.86.57l-.03-.04Z"/>
  <path d="m156.01,24.04c0-1.7.02-3.4-.03-5.11-.02-.68.16-.95.89-.93,1.41.05,2.82.05,4.23,0,.72-.03.92.24.9.93-.04,1.7-.02,3.4-.03,5.11,0,0,.03-.04.03-.04-.3.37-.7.6-1.17.57-1.63-.11-3.36.59-4.86-.57l.03.04Z"/>
  <path d="m192,228.01c0-1.7.02-3.4-.03-5.1-.02-.67.13-.97.88-.94,1.45.06,2.9.04,4.35,0,.59-.01.8.18.79.78-.03,1.49-.04,2.99,0,4.48.01.62-.23.77-.8.76-1.74-.03-3.48-.02-5.23-.02,0,0,.04.04.04.04Z"/>
  <path d="m72.03,83.99c-1.71,0-3.41-.02-5.12.03-.71.02-.93-.21-.91-.91.05-1.71.02-3.41.03-5.12,0,0-.03.04-.03.04.3-.37.7-.6,1.17-.57,1.63.11,3.36-.59,4.86.57l-.03-.03c.37.3.6.7.57,1.17-.11,1.63.59,3.36-.57,4.86l.04-.03Z"/>
  <path d="m162.01,42c-2.01,0-4.03,0-6.04,0,0,0,.04.03.04.03-.32-.28-.53-.61-.57-1.05-.1-1.31-.1-2.62,0-3.93.03-.44.25-.77.57-1.05l-.04.04c.47-.61,1.15-.6,1.81-.62,1.12-.02,2.24-.05,3.36.04.56.05,1.16.15,1.27.79.3,1.73.29,3.47,0,5.2-.04.25-.29.4-.46.58l.04-.03Z"/>
  <path d="m33.21,72.01c-3.19,0-3.21,0-3.17-2.94.01-.98-.45-2.22.23-2.86.61-.59,1.82-.17,2.77-.18.94-.01,2.2-.3,2.76.18.67.57.2,1.87.21,2.84.02.94.41,2.17-.16,2.76-.64.64-1.89.09-2.63.21Z"/>
  <path d="m240.02,236.99c-.05.95.26,2.2-.23,2.76-.58.66-1.87.2-2.85.21-.94.01-2.16.42-2.76-.18-.6-.59-.19-1.81-.18-2.75.01-.98-.45-2.26.2-2.87.64-.59,1.9-.18,2.89-.17.94.01,2.22-.45,2.72.22.45.61.1,1.83.1,2.77.04,0,.08,0,.12,0Z"/>
  <path d="m131.98,197.97c0,1.74,0,3.49.02,5.23.01.57-.15.81-.76.8-1.49-.04-2.99-.04-4.48,0-.61.01-.78-.22-.77-.8.03-1.33.04-2.66,0-3.99-.02-.92.4-1.25,1.29-1.23,1.58.04,3.16.02,4.73.02,0,0-.04-.04-.04-.04Z"/>
  <path d="m60.03,107.98c-1.7,0-3.4-.01-5.1.03-.68.02-.96-.16-.93-.89.05-1.37.04-2.74.02-4.1-.01-.72.25-1.05,1.02-1.03,1.41.04,2.82.04,4.23,0,.62-.02.77.24.76.8-.03,1.74-.02,3.48-.03,5.22,0,0,.04-.04.04-.04Z"/>
  <path d="m179.98,83.99c0,1.74,0,3.49.02,5.23.01.57-.14.82-.76.8-1.37-.04-2.74-.03-4.11,0-.73.02-1.09-.31-1.1-1.02-.02-1.45,0-2.91-.04-4.36-.02-.63.35-.63.8-.63,1.74.01,3.49.01,5.23.02,0,0-.04-.04-.04-.04Z"/>
  <path d="m59.99,108.02c1.71,0,3.42.02,5.12-.03.71-.02.94.2.91.91-.05,1.29-.01,2.58-.03,3.87-.01.84-.38,1.28-1.31,1.24-1.58-.07-3.16-.05-4.74-.07,0,0,.04.03.04.03.01-2,.03-4,.04-6,0,0-.04.04-.04.04Z"/>
  <path d="m203.96,84.02c1.7,0,3.41.02,5.11-.03.69-.02.96.17.92.9-.06,1.16.02,2.33-.04,3.49-.06,1.29-.41,1.61-1.68,1.62-1.45,0-2.91-.03-4.36-.05,0,0,.04.03.04.03.01-2,.03-4,.04-6,0,0-.04.04-.04.04Z"/>
  <path d="m155.9,155.87c.03,1.82.05,3.63.1,5.45.02.57-.24.69-.74.68-1.78-.03-3.55-.04-5.33-.06,0,0,.04.04.04.03.14-.98-.39-2.23.23-2.86.59-.61,1.83-.56,2.75-.9,1.22-.45,2.13-1.36,2.97-2.32,0,0-.01-.02-.01-.02Z"/>
  <path d="m162.01,131.98c-.46,0-.92.01-1.37.01-1.69,0-1.69,0-1.67-1.64.01-1.17.04-2.33-.02-3.5-.03-.64.13-.92.81-.87.75.05,1.5.02,2.25.03,0,0-.04-.03-.04-.03.32.28.53.61.57,1.05.1,1.31.1,2.62,0,3.93-.03.44-.25.77-.57,1.05,0,0,.04-.03.04-.03Z"/>
  <path d="m95.98,132.01q3.06-.05,3.05,2.96c0,.33,0,.66,0,1-.02,2.12-.02,2.08-2.14,2.05-.73,0-.9-.26-.89-.94.04-1.7.02-3.4.02-5.1,0,0-.04.04-.04.04Z"/>
  <path d="m117.03,161.99c-.33,0-.67,0-1,0-2.23,0-2.3-.1-2.04-2.39.06-.5.25-.62.69-.62,1.41,0,2.83,0,4.24-.04.79-.02,1.15.29,1.08,1.1-.04.41-.03.83,0,1.25.05.56-.2.73-.73.7-.75-.03-1.5,0-2.25,0Z"/>
  <path d="m119.98,95.99q.07,3.1-2.98,3.05t-2.99-3.05l-.04.04c.3-.37.7-.6,1.17-.57,1.63.11,3.36-.59,4.86.57l-.03-.04Z"/>
  <path d="m129.04,158.99c.29,0,.58,0,.87,0,2.29.02,2.27.02,2.1,2.32-.04.55-.23.7-.74.69-1.41-.02-2.82-.03-4.22,0-.76.02-.99-.32-1.05-1.03-.14-1.96-.17-1.96,1.8-1.97.41,0,.83,0,1.24,0,0,0,0,0,0,0Z"/>
  <path class="uuid-74fa53bc-8f8a-4d69-91ae-f0de7bc6d31e" d="m120.02,36c0,1.74,0,3.49-.02,5.23-.01.58.15.81.77.8,1.49-.04,2.99-.04,4.48,0,.61.01.78-.22.77-.8-.03-1.74-.02-3.49-.02-5.23,1.7,0,3.41.04,5.11,0,.69-.02.93.17.92.9-.04,3.41-.05,6.81,0,10.22.01.86-.36.91-1.04.91-3.28-.02-6.56.03-9.84-.03-.95-.02-1.2.26-1.16,1.18.08,1.62.03,3.24.04,4.86-.41.5-.97.59-1.57.6-.79.01-1.58-.02-2.37.03-.68.05-1.24.32-1.37,1.05-.15.86-.14,1.74,0,2.61.09.55.44.9.99.99.87.14,1.75.15,2.61,0,.73-.13,1-.68,1.05-1.37.05-.79.02-1.58.03-2.37,0-.6.1-1.16.6-1.58,1.79,0,3.58.03,5.37.01.55,0,.89.11.82.76-.37,3.36-.12,6.74-.15,10.11,0,.94-.24,1.18-1.18,1.17-5.62-.05-11.24-.04-16.86-.04-.06-.04-.13-.08-.19-.12-.49-.56-.4-1.25-.4-1.9-.03-2.41.01-4.82-.02-7.23-.02-1.64-.46-2.02-2.09-2.12-1.06-.06-2.17.27-3.15-.41-.04-.06-.08-.13-.12-.19,0-1.7-.04-3.41,0-5.11.02-.7-.19-.92-.9-.92-5.41.03-10.81.03-16.22,0-.71,0-.92.22-.9.92.04,1.7,0,3.41,0,5.11-.03.06-.07.12-.1.18-.84.65-1.83.39-2.75.41-2.21.05-2.47.31-2.52,2.52-.02.93.24,1.91-.41,2.75-.06.03-.12.07-.18.1-2.01.01-4.02.02-6.03.04,0-5.57.04-11.15,0-16.72,0-1,.18-1.41,1.27-1.32,1.24.1,2.5-.03,3.74.04.84.05,1.04-.26,1.03-1.05-.04-3.66-.03-7.32-.03-10.98,1.66,0,3.33.05,4.99,0,.82-.03,1.05.22,1.04,1.04-.05,3.25.01,6.49-.04,9.74-.01.93.16,1.29,1.2,1.27,3.29-.07,6.58-.05,9.86,0,.78.01.98-.23.97-.99-.04-3.33,0-6.66-.03-9.99,0-.78.16-1.08,1.02-1.06,3.33.05,6.66.05,9.99,0,.84-.01,1.06.25,1.03,1.05-.06,1.37-.05,2.75,0,4.12.02.64-.16.88-.83.86-1.41-.05-2.83.01-4.24-.03-.66-.02-.98.12-.95.87.06,1.29.05,2.58,0,3.87-.03.92.22,1.36,1.25,1.29,1.28-.09,2.58.02,3.87-.03.73-.03.92.23.9.92-.05,1.41.01,2.83-.03,4.24-.02.64.17.88.84.86,1.41-.05,2.83-.06,4.24,0,.82.04.95-.29.94-1.01-.03-3.29.02-6.58-.04-9.86-.02-.94.24-1.21,1.17-1.17,1.62.08,3.24.01,4.87,0Z"/>
  <path class="uuid-74fa53bc-8f8a-4d69-91ae-f0de7bc6d31e" d="m108.02,96.02c-4.01-.01-8.02-.02-12.03-.04-.07-.04-.13-.09-.2-.13-.7-1.88-.47-3.79-.14-5.7.05-.14.12-.26.22-.36,1.12-.64,2.35-.35,3.53-.41,1.68-.07,1.98-.42,1.98-2.4,0-1.96-.31-2.29-2.01-2.38-1.09-.06-2.25.3-3.26-.41-.03-.06-.06-.12-.1-.18,0-2.01,0-4.02,0-6.03.03-.06.06-.12.09-.18.97-.71,2.09-.37,3.14-.41,1.83-.08,2.12-.37,2.12-2.39,0-2.02-.29-2.32-2.13-2.39-1.05-.05-2.17.3-3.14-.41-.03-.06-.06-.12-.09-.18,0-5.66,0-11.33-.04-16.99,0-.82.22-1.07,1.04-1.04,1.66.07,3.33.03,5,.04,0,0-.04-.03-.04-.03.6.46.62,1.13.62,1.8.03,2.32,0,4.64.01,6.96.01,2.22.4,2.58,2.6,2.65.96.03,2.02-.27,2.8.62,0,0-.03-.04-.03-.04.01,10.01.02,20.02.03,30.03Z"/>
  <path class="uuid-74fa53bc-8f8a-4d69-91ae-f0de7bc6d31e" d="m161.98,42.03c0-1.75,0-3.5.03-5.24.01-.6-.19-.79-.78-.78-1.75.04-3.5.02-5.24.03,0-4.01,0-8.02,0-12.03,2.01,0,4.02,0,6.03,0,0,1.66.02,3.32-.03,4.98-.03.78.17,1.1,1.02,1.06,1.41-.07,2.82,0,4.23-.03.6-.01.79.19.78.78-.03,1.41.04,2.82-.03,4.23-.04.85.28,1.04,1.06,1.01,1.66-.06,3.32-.03,4.98-.03,0,1.67-.06,3.33,0,5,.03.82-.23,1.05-1.04,1.04-3.66-.04-7.33,0-10.99,0Z"/>
  <path class="uuid-74fa53bc-8f8a-4d69-91ae-f0de7bc6d31e" d="m120.02,96.02c-2.01,0-4.02,0-6.03,0,0-7.57.04-15.13-.01-22.7,0-1.13.3-1.43,1.38-1.34,1.16.1,2.33.08,3.49,0,.91-.06,1.21.19,1.19,1.15-.07,3.24.01,6.48-.05,9.73-.02.94.24,1.21,1.17,1.16,1.62-.07,3.24,0,4.86,0l-.04-.04c.01,1.7,0,3.41.05,5.11.02.7-.2.94-.91.92-1.41-.05-2.83.02-4.24-.03-.72-.03-.92.23-.9.92.05,1.7.02,3.41.03,5.11Z"/>
  <path class="uuid-74fa53bc-8f8a-4d69-91ae-f0de7bc6d31e" d="m126.01,84.03c0-3.66.01-7.32-.03-10.98,0-.78.16-1.08,1.01-1.06,3.33.05,6.65.05,9.98,0,.82-.01,1.05.22,1.04,1.04-.04,3.33-.05,6.65,0,9.98.01.85-.28,1.02-1.06,1.01-3.66-.04-7.32-.03-10.98-.03,0,0,.04.04.04.04Z"/>
  <path class="uuid-74fa53bc-8f8a-4d69-91ae-f0de7bc6d31e" d="m137.98,53.99c0,3.74,0,7.47.03,11.21,0,.57-.03.95-.78.91-1.49-.08-2.99-.1-4.48-.09-.61,0-.77-.22-.76-.8.02-3.49.02-6.97,0-10.46,0-.62.23-.77.8-.76,1.74.03,3.49.02,5.23.02,0,0-.03-.04-.03-.04Z"/>
  <path class="uuid-74fa53bc-8f8a-4d69-91ae-f0de7bc6d31e" d="m138,39q0-2.98,2.92-2.98,3.08,0,3.08,3.08,0,2.92-2.86,2.92s-.08,0-.12,0q-3.01,0-3.01-3.02Z"/>
  <path class="uuid-74fa53bc-8f8a-4d69-91ae-f0de7bc6d31e" d="m156.01,36c0,2.01,0,4.02,0,6.03-1.7,0-3.41-.04-5.11,0-.69.02-.95-.17-.92-.9.05-1.41.05-2.83,0-4.24-.03-.73.23-.91.92-.9,1.7.04,3.41,0,5.11,0Z"/>
  <path class="uuid-74fa53bc-8f8a-4d69-91ae-f0de7bc6d31e" d="m167.98,138.02c0-2.01,0-4.02,0-6.03,3.53,0,7.06.05,10.59,0,1.08-.02,1.56.18,1.45,1.39-.12,1.28,0,2.57-.04,3.86-.02.6.19.8.78.78,1.33-.04,2.66.05,3.99-.04.95-.06,1.32.15,1.26,1.19-.09,1.61-.01,3.24,0,4.86-1.71,0-3.41.02-5.12-.03-.71-.02-.94.21-.91.91.05,1.37-.02,2.75.03,4.12.03.74-.15,1.04-.96,1-1.37-.07-2.75-.07-4.12,0-.81.04-.96-.27-.95-1,.03-3.29-.02-6.58.04-9.87.02-.93-.23-1.22-1.17-1.17-1.62.09-3.25.03-4.87.04Z"/>
  <path class="uuid-74fa53bc-8f8a-4d69-91ae-f0de7bc6d31e" d="m198.01,156.01c-3.66,0-7.33-.04-10.99,0-.82,0-1.05-.22-1.04-1.04.04-3.66,0-7.33,0-10.99,1.7,0,3.41.04,5.11,0,.69-.02.95.19.92.9-.05,1.33.06,2.67-.04,3.99-.07.99.3,1.19,1.2,1.14,1.33-.07,2.66.01,3.99-.03.7-.02.94.19.91.92-.07,1.7-.04,3.41-.05,5.11Z"/>
  <path class="uuid-74fa53bc-8f8a-4d69-91ae-f0de7bc6d31e" d="m216,149.98c-1.66,0-3.32-.05-4.98.04-.93.05-1.1-.32-1.06-1.14.06-1.37,0-2.74.03-4.11.01-.59-.18-.8-.78-.78-1.41.03-2.82-.04-4.23.03-.85.04-1.05-.27-1.02-1.06.06-1.66.03-3.32.04-4.98l-.04.04c3.66,0,7.33.01,10.99-.04.82-.01,1.05.23,1.04,1.04-.05,3.66-.03,7.33-.03,10.99,0,0,.04-.04.04-.04Z"/>
  <path class="uuid-74fa53bc-8f8a-4d69-91ae-f0de7bc6d31e" d="m227.96,119.98c2.01,0,4.02,0,6.03,0,0,3.62-.05,7.25,0,10.87.01.93-.23,1.22-1.17,1.17-1.62-.08-3.25-.01-4.87,0,0-4.01,0-8.02,0-12.03Z"/>
  <path class="uuid-74fa53bc-8f8a-4d69-91ae-f0de7bc6d31e" d="m204.01,137.98c-3.66,0-7.31,0-10.97.03-.77,0-1.12-.14-1.07-1.01.07-1.41.04-2.83,0-4.24-.01-.6.19-.79.78-.78,3.49.02,6.98.02,10.47,0,.61,0,.78.22.77.8-.03,1.74-.02,3.49-.02,5.24,0,0,.04-.04.04-.04Z"/>
  <path class="uuid-74fa53bc-8f8a-4d69-91ae-f0de7bc6d31e" d="m221.97,131.98c2.01,0,4.02,0,6.03,0,0,3.66-.03,7.32,0,10.98,0,.79-.17,1.1-1.02,1.06-1.33-.07-2.66-.07-3.99,0-.85.05-1.03-.27-1.02-1.06.03-3.66,0-7.32,0-10.98Z"/>
  <path class="uuid-74fa53bc-8f8a-4d69-91ae-f0de7bc6d31e" d="m216,155.98c-.01,2.01-.02,4.02-.04,6.03-.04.07-.09.13-.13.2-1.9.63-3.8.63-5.7,0-.04-.07-.09-.13-.13-.2,0-1.71.02-3.41-.03-5.12-.02-.71.21-.93.91-.91,1.71.04,3.41,0,5.12,0Z"/>
  <path class="uuid-74fa53bc-8f8a-4d69-91ae-f0de7bc6d31e" d="m198.01,162.01c-.01-2.01-.02-4.02-.04-6.03,1.71,0,3.41.04,5.12,0,.71-.02.93.2.91.91-.05,1.71-.03,3.41-.03,5.12-.04.07-.09.13-.13.2-1.9.63-3.8.63-5.7,0-.04-.07-.09-.13-.13-.2Z"/>
  <path class="uuid-74fa53bc-8f8a-4d69-91ae-f0de7bc6d31e" d="m203.97,162.01h6.04s-.04-.03-.04-.03c.43.34.6.8.59,1.31,0,1.53.25,3.07-.24,4.58-.07.15-.17.27-.3.37-1.98.59-3.97.53-5.97.05-.15-.08-.26-.19-.35-.34-.37-2.01-.82-4.03.3-5.97l-.04.03Z"/>
  <path class="uuid-74fa53bc-8f8a-4d69-91ae-f0de7bc6d31e" d="m161.98,132.02c0-2.01,0-4.02,0-6.03,1.71,0,3.41.04,5.12,0,.71-.02.93.21.91.91-.04,1.71,0,3.41,0,5.12-2.01,0-4.02,0-6.03,0Z"/>
  <path class="uuid-74fa53bc-8f8a-4d69-91ae-f0de7bc6d31e" d="m191.97,113.99c2.01,0,4.02,0,6.03,0,0,1.7-.04,3.41,0,5.11.02.69-.17.95-.9.92-1.41-.05-2.82-.05-4.24,0-.73.03-.91-.24-.9-.92.04-1.7,0-3.41,0-5.11Z"/>
  <path class="uuid-74fa53bc-8f8a-4d69-91ae-f0de7bc6d31e" d="m185.97,114.02c0-1.7.04-3.41,0-5.11-.02-.69.17-.95.9-.92,1.41.05,2.83.05,4.24,0,.73-.03.91.23.9.92-.04,1.7,0,3.41,0,5.11-2.01,0-4.02,0-6.03,0Z"/>
  <path class="uuid-74fa53bc-8f8a-4d69-91ae-f0de7bc6d31e" d="m71.99,96.02c0-2.01,0-4.02,0-6.03,4.01.01,8.02.02,12.03.04.07.04.13.09.2.13.63,1.9.63,3.8,0,5.7-.07.04-.13.09-.2.13-4.01.01-8.02.02-12.03.04Z"/>
  <path class="uuid-74fa53bc-8f8a-4d69-91ae-f0de7bc6d31e" d="m83.99,60c0,3.7,0,7.4.03,11.1,0,.69-.16.96-.89.93-1.41-.05-2.83-.05-4.24,0-.74.03-.9-.25-.89-.93.03-3.7.02-7.4.03-11.1,0,0-.03.04-.03.04.34-.43.8-.61,1.32-.59,1.52.06,3.07-.38,4.54.36.05.07.09.13.14.2Z"/>
  <path class="uuid-74fa53bc-8f8a-4d69-91ae-f0de7bc6d31e" d="m84.02,90.03c0-1.71.02-3.42-.03-5.12-.02-.71.2-.92.91-.91,3.71.04,7.41.03,11.12.03,0,0-.04-.03-.04-.03.37.3.6.7.57,1.17-.11,1.63.59,3.36-.57,4.86l.03-.03c-.43.56-1.05.61-1.68.61-2.89.04-5.79.04-8.68,0-.63,0-1.25-.05-1.68-.61l.03.04Z"/>
  <path class="uuid-74fa53bc-8f8a-4d69-91ae-f0de7bc6d31e" d="m71.99,84.03v-6.03c1.75,0,3.49.06,5.24,0,.95-.04,1.14.29.95,1.16-.29,1.31-.18,2.65-.15,3.98.02.72-.23.92-.92.9-1.7-.04-3.41,0-5.11,0Z"/>
  <path class="uuid-74fa53bc-8f8a-4d69-91ae-f0de7bc6d31e" d="m83.99,54.03c1.74,0,3.49,0,5.23-.03.58-.01.81.15.8.77-.04,1.49-.04,2.99,0,4.49.01.61-.22.78-.8.77-1.74-.03-3.49-.02-5.23-.03,0,0,.04.03.04.03-.37-.3-.6-.7-.57-1.17.11-1.63-.59-3.36.57-4.86l-.04.03Z"/>
  <path class="uuid-74fa53bc-8f8a-4d69-91ae-f0de7bc6d31e" d="m96.03,77.99c-1.7,0-3.41-.01-5.11.03-.68.02-.96-.16-.93-.89.05-1.41.05-2.83,0-4.24-.03-.72.24-.91.92-.9,1.7.05,3.41.02,5.11.03l-.04-.03c.37.3.6.7.57,1.17-.11,1.63.59,3.36-.57,4.86l.04-.03Z"/>
  <path class="uuid-74fa53bc-8f8a-4d69-91ae-f0de7bc6d31e" d="m72.03,78.03c-2.01,0-4.02,0-6.03,0,0-1.7.04-3.41,0-5.11-.02-.69.17-.95.9-.92,1.41.05,2.82.05,4.24,0,.73-.03.91.23.9.92-.04,1.7,0,3.4,0,5.11Z"/>
  <path class="uuid-74fa53bc-8f8a-4d69-91ae-f0de7bc6d31e" d="m60.03,77.99c-1.7,0-3.4-.02-5.1.03-.68.02-.96-.15-.93-.88.05-1.45.04-2.91,0-4.36-.01-.59.18-.8.78-.78,1.49.03,2.99.04,4.48,0,.62-.02.77.23.76.8-.03,1.74-.02,3.49-.02,5.23,0,0,.04-.04.04-.04Z"/>
  <path class="uuid-74fa53bc-8f8a-4d69-91ae-f0de7bc6d31e" d="m173.97,161.98c8.01.01,16.02.02,24.03.03,0,0-.04-.03-.04-.03.88.73.6,1.75.62,2.68.05,2.45.28,2.68,2.73,2.73.92.02,1.94-.26,2.68.62l-.03-.03c.47.37.59.88.6,1.44.05,3.08.06,6.16,0,9.24,0,.42-.06.83-.36,1.17-.07.05-.13.1-.2.14-2.01,0-4.02,0-6.03,0-.06-.03-.12-.06-.18-.09-.4-.39-.39-.9-.41-1.4-.03-.71,0-1.41-.02-2.12-.01-.42,0-.89-.3-1.18-1.02-.97-2.28-.59-3.43-.45-.94.12-1,.98-1.02,1.76-.01.67,0,1.33-.02,2-.02.5-.02,1.01-.41,1.4-.06.03-.12.06-.18.09-1.67,0-3.33-.03-5,.04-.82.03-1.05-.23-1.04-1.04.04-3.29,0-6.58.04-9.87.01-.84-.17-1.18-1.08-1.13-1.33.08-2.67.07-3.99,0-.81-.04-.96.27-.95,1,.04,3.29-.02,6.58.04,9.87.02.93-.23,1.22-1.17,1.17-1.62-.08-3.25-.01-4.87,0,0-1.71-.02-3.41.03-5.12.02-.71-.21-.93-.91-.91-1.41.05-2.83-.01-4.25.02-.62.02-.89-.14-.87-.83.05-1.46.05-2.91,0-4.37-.02-.69.25-.84.87-.82,1.46.03,2.91-.01,4.37.02.6.01.8-.18.78-.78-.04-1.75-.02-3.5-.03-5.24Z"/>
  <path class="uuid-74fa53bc-8f8a-4d69-91ae-f0de7bc6d31e" d="m209.99,201.06c0,2.66-.03,5.33.02,7.99.01.78-.22.97-.99.96-5.29-.04-10.58-.05-15.86-.01-.9,0-1.2-.18-1.19-1.15.05-5.25.05-10.49,0-15.74,0-.97.28-1.16,1.19-1.15,5.25.04,10.49.04,15.74,0,.86,0,1.14.2,1.12,1.1-.06,2.66-.02,5.33-.02,7.99h0Z"/>
  <path class="uuid-74fa53bc-8f8a-4d69-91ae-f0de7bc6d31e" d="m222,180.01c-1.75,0-3.5,0-5.24-.03-.6-.01-.79.19-.78.78.04,1.75.02,3.5.03,5.24-3.62,0-7.25-.05-10.87,0-.94.01-1.22-.23-1.17-1.17.09-1.62.03-3.25.04-4.87,0,0-.03.04-.03.04.61-.77,1.49-.61,2.3-.63,2.92-.05,3.09-.22,3.1-3.13,0-2.16-.01-4.31.01-6.47,0-.67.02-1.34.62-1.8l-.03.03c.73-.88,1.75-.6,2.68-.62,2.45-.05,2.68-.28,2.73-2.73.02-.92-.26-1.94.62-2.68,0,0-.04.03-.04.03,2.01-.01,4.02-.02,6.04-.03,0,6.01,0,12.02,0,18.03Z"/>
  <path class="uuid-74fa53bc-8f8a-4d69-91ae-f0de7bc6d31e" d="m173.97,204c0-3.66-.02-7.31.04-10.97.02-.92-.31-1.1-1.14-1.07-1.37.06-2.74,0-4.11.03-.6.02-.78-.19-.78-.78.02-3.49.02-6.98,0-10.47,0-.61.21-.78.79-.77,1.74.02,3.49,0,5.23,0,0,1.71.03,3.42-.02,5.12-.02.73.24.93.93.9,1.37-.04,2.75.04,4.12-.03.8-.04.97.24.96.99-.03,5.37-.03,10.75,0,16.12,0,.7-.19.94-.91.92-1.71-.04-3.42,0-5.12,0Z"/>
  <path class="uuid-74fa53bc-8f8a-4d69-91ae-f0de7bc6d31e" d="m228,203.97c0,4.01,0,8.02,0,12.03-4.01,0-8.02,0-12.03,0,0-1.66.05-3.32,0-4.98-.02-.78.16-1.1,1.01-1.06,1.41.07,2.82,0,4.23.03.59.01.79-.19.78-.78-.03-1.41.04-2.82-.03-4.23-.04-.85.28-1.04,1.06-1.01,1.66.05,3.32,0,4.98,0Z"/>
  <path class="uuid-74fa53bc-8f8a-4d69-91ae-f0de7bc6d31e" d="m179.97,234c0-2.01,0-4.02,0-6.03,2.01,0,4.02,0,6.03,0,0,1.65-.05,3.3,0,4.95.03.84-.16,1.15-1.08,1.1-1.65-.09-3.3-.02-4.95-.02Z"/>
  <path class="uuid-74fa53bc-8f8a-4d69-91ae-f0de7bc6d31e" d="m197.97,179.97c.02,1.75.02,3.5.07,5.24.02.61-.2.79-.79.78-1.5-.03-3-.03-4.49,0-.6.01-.79-.19-.78-.78.04-1.75.02-3.5.03-5.24l-.03.04c.3-.37.7-.6,1.17-.57,1.63.11,3.36-.59,4.86.57l-.03-.04Z"/>
  <path class="uuid-74fa53bc-8f8a-4d69-91ae-f0de7bc6d31e" d="m234,204c-2.01,0-4.02,0-6.03,0,0-2.01,0-4.02,0-6.03,1.71,0,3.41.04,5.12,0,.71-.02.93.2.91.91-.04,1.71,0,3.41,0,5.12Z"/>
  <path class="uuid-74fa53bc-8f8a-4d69-91ae-f0de7bc6d31e" d="m216,215.97c0,1.71-.04,3.41,0,5.12.02.71-.2.93-.91.91-1.71-.04-3.41,0-5.12,0,0-1.71.04-3.41,0-5.12-.02-.71.2-.93.91-.91,1.71.04,3.41,0,5.12,0Z"/>
  <path class="uuid-74fa53bc-8f8a-4d69-91ae-f0de7bc6d31e" d="m54.03,137.98c0,1.7.02,3.41-.03,5.11-.02.69.17.95.9.92,1.41-.05,2.82.02,4.23-.03.73-.03.91.24.9.92-.05,1.7-.03,3.4-.03,5.11-.03.06-.07.12-.1.18-.84.65-1.83.39-2.75.41-2.21.05-2.47.31-2.52,2.52-.02.93.24,1.91-.41,2.75-.06.03-.12.07-.18.1-1.7,0-3.41-.02-5.11.03-.69.02-.95-.17-.92-.9.05-1.41-.02-2.82.03-4.23.03-.73-.23-.91-.92-.9-1.7.04-3.4,0-5.11,0-.07-.04-.13-.09-.2-.13-.63-1.9-.63-3.8,0-5.7.07-.04.13-.09.2-.13,1.7,0,3.41-.04,5.11,0,.69.02.95-.17.92-.9-.05-1.41.02-2.82-.03-4.23-.03-.73.24-.91.92-.9,1.7.04,3.4,0,5.11,0Z"/>
  <path class="uuid-74fa53bc-8f8a-4d69-91ae-f0de7bc6d31e" d="m36,162.01c0-1.75,0-3.5.03-5.24.01-.6-.19-.79-.78-.78-1.75.04-3.5.02-5.24.03,0-3.66.04-7.33,0-10.99,0-.81.22-1.08,1.04-1.04,1.66.07,3.33.03,5,.04.06.04.12.07.18.11.64.84.38,1.82.41,2.75.05,2.2.32,2.46,2.51,2.52.99.03,2.09-.32,2.9.62,0,0-.03-.04-.03-.04.01,4.01.02,8.02.03,12.03-2.01,0-4.02,0-6.03,0Z"/>
  <path class="uuid-74fa53bc-8f8a-4d69-91ae-f0de7bc6d31e" d="m36.03,144.02c0-3.7,0-7.4-.03-11.1,0-.68.16-.96.89-.93,1.41.05,2.83.05,4.24,0,.74-.03.9.24.89.93-.03,3.7-.03,7.4-.03,11.1,0,0,.03-.04.03-.04-.3.37-.7.6-1.17.57-1.63-.11-3.36.59-4.86-.57l.03.04Z"/>
  <path class="uuid-74fa53bc-8f8a-4d69-91ae-f0de7bc6d31e" d="m30.02,135.23c-.13.77.44,1.99-.2,2.58-.62.57-1.82.17-2.77.18-3.03.02-3.03,0-3.03-2.99q0-3,2.91-3,3.09,0,3.09,3.23Z"/>
  <path class="uuid-74fa53bc-8f8a-4d69-91ae-f0de7bc6d31e" d="m24,120.02c1.7,0,3.4.02,5.1-.03.68-.02.96.14.93.89-.05,1.45-.04,2.9,0,4.36.01.59-.18.79-.78.78-1.49-.03-2.99-.04-4.48,0-.62.02-.77-.23-.76-.8.03-1.74.02-3.49.02-5.23,0,0-.04.04-.04.04Z"/>
  <path class="uuid-74fa53bc-8f8a-4d69-91ae-f0de7bc6d31e" d="m24.02,39.02c0-4.62.03-9.24-.02-13.87-.01-.96.28-1.16,1.19-1.15,9.24.03,18.49.03,27.73,0,.85,0,1.12.19,1.12,1.09-.03,9.29-.03,18.57,0,27.86,0,.9-.27,1.09-1.12,1.09-9.24-.03-18.49-.03-27.73,0-.91,0-1.2-.19-1.19-1.15.05-4.62.02-9.24.02-13.87Z"/>
  <path class="uuid-74fa53bc-8f8a-4d69-91ae-f0de7bc6d31e" d="m126.01,221.96c-1.7,0-3.41.05-5.11,0-.7-.02-.94.19-.91.91.05,1.37-.02,2.74.03,4.11.02.72-.11,1.05-.94,1.01-1.41-.07-2.83-.05-4.24,0-.65.02-.86-.18-.85-.84.03-3.45.02-6.9,0-10.35,0-.54.07-.84.73-.83,3.78.04,7.56.05,11.34.07,0,0-.04-.03-.04-.03-.02,2-.03,3.99-.05,5.99l.04-.04Z"/>
  <path class="uuid-74fa53bc-8f8a-4d69-91ae-f0de7bc6d31e" d="m125.98,222c1.7,0,3.4.02,5.1-.03.68-.02.96.14.93.88-.06,1.45-.04,2.91,0,4.36.01.59-.18.8-.78.78-1.49-.03-2.99-.04-4.48,0-.62.02-.77-.23-.76-.8.03-1.74.02-3.49.02-5.23,0,0-.04.04-.04.04Z"/>
  <path class="uuid-74fa53bc-8f8a-4d69-91ae-f0de7bc6d31e" d="m233.98,39.01c0,4.66-.02,9.33.02,13.99,0,.95-.21,1.11-1.19,1.09-4.04-.11-8.08-.07-12.12-.08-5.2,0-10.41-.02-15.61.02-.85,0-1.12-.19-1.12-1.09.03-9.29.03-18.57,0-27.86,0-.9.27-1.09,1.12-1.09,9.24.03,18.49.03,27.73,0,.91,0,1.2.19,1.19,1.15-.06,4.62-.02,9.24-.02,13.87Z"/>
  <path class="uuid-74fa53bc-8f8a-4d69-91ae-f0de7bc6d31e" d="m39.01,233.98c-4.58,0-9.16-.02-13.75.02-.91,0-1.28-.13-1.28-1.19.05-9.25.04-18.49,0-27.74,0-.88.23-1.11,1.11-1.1,9.25.03,18.49.04,27.74,0,1.06,0,1.19.38,1.18,1.28-.03,8.66-.02,17.33-.02,25.99,0,.33-.01.67,0,1q.08,1.75-1.76,1.75c-4.42,0-8.83,0-13.25,0Z"/>
  <path class="uuid-74fa53bc-8f8a-4d69-91ae-f0de7bc6d31e" d="m83.99,168.01c2.01-.01,4.02-.02,6.03-.04,0,3.66-.04,7.33,0,10.99,0,.81-.22,1.07-1.04,1.04-1.66-.07-3.33-.03-5-.04-.07-.05-.13-.09-.2-.14-.39-.45-.38-1-.38-1.54-.03-2.87-.03-5.74,0-8.61,0-.54,0-1.09.38-1.54.07-.05.13-.09.2-.14Z"/>
  <path class="uuid-74fa53bc-8f8a-4d69-91ae-f0de7bc6d31e" d="m84.03,186.01c-2.01,0-4.02,0-6.03,0,.01-2.01.02-4.02.04-6.03.05-.07.09-.13.14-.2,1.98-.54,3.94-.84,5.86.23,0,0-.03-.04-.03-.04.01,2.01.02,4.02.03,6.04Z"/>
  <path class="uuid-74fa53bc-8f8a-4d69-91ae-f0de7bc6d31e" d="m149.98,192.01c0-3.62.04-7.25,0-10.87-.01-.93.23-1.22,1.17-1.17,1.62.08,3.25.01,4.87,0,0,1.7.02,3.41-.03,5.11-.02.69.17.95.9.92,1.37-.05,2.74.02,4.11-.03.71-.03,1.06.09,1.02.92-.07,1.41-.06,2.82,0,4.23.03.75-.28.88-.94.88-3.7-.02-7.39,0-11.09,0Z"/>
  <path class="uuid-74fa53bc-8f8a-4d69-91ae-f0de7bc6d31e" d="m150.01,198.01c-2.01,0-4.02,0-6.03,0,0-1.71.04-3.41,0-5.12-.02-.71.2-.93.91-.91,1.71.04,3.41,0,5.12,0,0,2.01,0,4.02,0,6.03Z"/>
  <path class="uuid-74fa53bc-8f8a-4d69-91ae-f0de7bc6d31e" d="m168.01,203.97c-1.7,0-3.4-.02-5.1.03-.67.02-.96-.15-.93-.88.05-1.45.04-2.91,0-4.36-.01-.6.18-.79.78-.78,1.49.03,2.99.04,4.48,0,.62-.02.77.23.76.8-.03,1.74-.02,3.49-.02,5.23,0,0,.04-.04.04-.04Z"/>
  <path class="uuid-74fa53bc-8f8a-4d69-91ae-f0de7bc6d31e" d="m233.97,71.99c0,1.75,0,3.49.02,5.24,0,.53-.06.86-.73.84-1.49-.05-2.99-.06-4.49-.04-.57,0-.81-.15-.8-.76.04-1.5.04-2.99,0-4.49-.01-.61.22-.78.8-.77,1.74.03,3.49.02,5.24.03,0,0-.04-.04-.04-.04Z"/>
  <path class="uuid-74fa53bc-8f8a-4d69-91ae-f0de7bc6d31e" d="m78.03,179.97c-4.01.01-8.02.02-12.03.03,0-4.01,0-8.02,0-12.03,4.01.01,8.02.02,12.03.04.07.05.13.1.2.14.39.45.37,1,.38,1.54.03,2.83.03,5.66,0,8.49,0,.67,0,1.35-.62,1.82l.04-.03Z"/>
  <path class="uuid-74fa53bc-8f8a-4d69-91ae-f0de7bc6d31e" d="m59.99,155.98c.01,2.01.02,4.02.04,6.03-1.71,0-3.41-.04-5.12,0-.71.02-.93-.21-.91-.91.05-1.71.03-3.41.03-5.12,0,0-.03.04-.03.04.34-.43.8-.61,1.32-.59,1.52.06,3.07-.38,4.54.36.05.07.09.13.14.2Z"/>
  <path class="uuid-74fa53bc-8f8a-4d69-91ae-f0de7bc6d31e" d="m42,168.01c0-2.01,0-4.02,0-6.03,1.7,0,3.41.04,5.11,0,.69-.02.95.17.92.9-.05,1.41-.05,2.82,0,4.23.03.73-.24.91-.92.9-1.7-.04-3.4,0-5.11,0Z"/>
  <path class="uuid-74fa53bc-8f8a-4d69-91ae-f0de7bc6d31e" d="m60,161.98c1.65,0,3.31.07,4.95-.02.91-.05,1.11.25,1.08,1.1-.06,1.65,0,3.3,0,4.96-2.01-.01-4.02-.03-6.03-.04l.04.04c-.01-2.01-.03-4.02-.04-6.03Z"/>
  <path class="uuid-74fa53bc-8f8a-4d69-91ae-f0de7bc6d31e" d="m36,167.98c2.01,0,4.02,0,6.03,0,0,2.01,0,4.02,0,6.03-1.71,0-3.41-.04-5.12,0-.71.02-.93-.2-.91-.91.04-1.71,0-3.41,0-5.12Z"/>
  <path class="uuid-74fa53bc-8f8a-4d69-91ae-f0de7bc6d31e" d="m60,167.97c0,1.7-.02,3.4.03,5.1.02.68-.15.96-.89.93-1.45-.05-2.9-.04-4.36,0-.59.01-.79-.19-.78-.78.03-1.49.04-2.99,0-4.48-.02-.62.24-.77.8-.76,1.74.03,3.49.02,5.23.02,0,0-.04-.04-.04-.04Z"/>
  <path class="uuid-74fa53bc-8f8a-4d69-91ae-f0de7bc6d31e" d="m95.99,95.99c0,1.75,0,3.5.03,5.25.01.6-.19.8-.78.78-1.41-.03-2.83.03-4.25-.03-.74-.03-1.04.15-1,.96.07,1.37-.03,2.75.04,4.12.04.81-.27.98-1,.95-1.37-.05-2.75-.05-4.12,0-.72.03-.92-.21-.91-.92.04-3.71.03-7.41.03-11.12,0,0-.03.04-.03.04.43-.56,1.05-.61,1.68-.61,2.89-.04,5.79-.04,8.68,0,.63,0,1.25.05,1.68.61,0,0-.03-.04-.03-.04Z"/>
  <path class="uuid-74fa53bc-8f8a-4d69-91ae-f0de7bc6d31e" d="m90.02,222c-1.7,0-3.41.02-5.11-.03-.69-.02-.95.17-.92.9.05,1.41-.02,2.82.03,4.23.03.73-.24.91-.92.9-1.7-.04-3.4,0-5.11,0,0-3.66.03-7.32,0-10.98,0-.79.17-1.07,1.02-1.06,3.33.05,6.65.05,9.98,0,.83-.01,1.06.24,1.03,1.05-.05,1.66,0,3.33,0,4.99Z"/>
  <path class="uuid-74fa53bc-8f8a-4d69-91ae-f0de7bc6d31e" d="m78.03,168.01c0-3.7,0-7.4-.03-11.1,0-.68.16-.96.89-.93,1.41.05,2.83.05,4.24,0,.73-.03.9.24.89.93-.03,3.7-.03,7.4-.03,11.1l.03-.04c-.28.32-.61.53-1.05.57-1.31.1-2.62.1-3.93,0-.44-.03-.77-.25-1.05-.57l.03.04Z"/>
  <path class="uuid-74fa53bc-8f8a-4d69-91ae-f0de7bc6d31e" d="m59.99,150.01c4.01-.01,8.02-.02,12.03-.03,0,1.71-.04,3.42,0,5.12.02.71-.21.92-.91.91-3.71-.04-7.41-.03-11.12-.03,0,0,.04.03.04.03-.32-.28-.53-.61-.57-1.05-.1-1.31-.1-2.62,0-3.93.03-.44.25-.77.57-1.05l-.04.03Z"/>
  <path class="uuid-74fa53bc-8f8a-4d69-91ae-f0de7bc6d31e" d="m228,180.01c0-1.7.02-3.4-.03-5.1-.02-.68.15-.96.89-.93,1.45.05,2.9.04,4.36,0,.6-.01.79.19.78.78-.03,1.49-.04,2.99,0,4.48.02.62-.24.77-.8.76-1.74-.03-3.49-.02-5.23-.02,0,0,.03.03.03.03Z"/>
  <path class="uuid-74fa53bc-8f8a-4d69-91ae-f0de7bc6d31e" d="m155.98,234c0-2.01,0-4.02,0-6.03,1.71,0,3.41.04,5.12,0,.71-.02.93.21.91.91-.04,1.71,0,3.41,0,5.12-2.01,0-4.02,0-6.03,0Z"/>
  <path class="uuid-74fa53bc-8f8a-4d69-91ae-f0de7bc6d31e" d="m65.99,137.98c2.01,0,4.02,0,6.03,0,0,2.01,0,4.02,0,6.03-1.71,0-3.41-.04-5.12,0-.71.02-.93-.21-.91-.91.04-1.71,0-3.41,0-5.12Z"/>
  <path class="uuid-74fa53bc-8f8a-4d69-91ae-f0de7bc6d31e" d="m227.96,215.97c2.01,0,4.02,0,6.03,0,0,1.71-.04,3.41,0,5.12.02.71-.2.93-.91.91-1.71-.04-3.41,0-5.12,0v-6.03Z"/>
  <path d="m108.02,66.03c-1.45,0-2.9-.01-4.35-.02-1.56,0-1.66-.09-1.67-1.71-.02-3.43-.02-6.87-.02-10.31,1.67,0,3.33.06,4.99,0,.82-.03,1.05.23,1.04,1.04-.04,3.66,0,7.33,0,10.99Z"/>
  <path d="m119.99,53.99c0,1.75-.01,3.5.02,5.24.01.59-.17.8-.78.79-1.5-.03-3-.03-4.49,0-.51,0-.76-.12-.74-.69.03-1.5.04-3,0-4.49-.02-.7.31-.83.91-.82,1.71.03,3.41.01,5.12.02,0,0-.04-.04-.04-.04Z"/>
  <path d="m84.03,54c0,2.01,0,4.02,0,6.03-2.01,0-4.02,0-6.03,0,0-1.57.05-3.15.01-4.72-.02-.95.31-1.34,1.3-1.31,1.57.06,3.15,0,4.72,0Z"/>
  <path d="m96.02,96.02c-4.01,0-8.02,0-12.03,0,0-2.01,0-4.02,0-6.03,4.01,0,8.02,0,12.03,0,0,2.01,0,4.02,0,6.03Z"/>
  <path d="m95.99,90.02c0-2.01,0-4.02,0-6.03,1.7,0,3.4.04,5.1,0,.68-.01.96.16.93.89-.05,1.41-.05,2.82,0,4.23.03.73-.24.91-.93.9-1.7-.04-3.4,0-5.1,0Z"/>
  <path d="m95.99,78.03c0-2.01,0-4.02,0-6.03,1.7,0,3.4.04,5.1,0,.69-.02.95.16.93.89-.05,1.41-.05,2.82,0,4.23.03.73-.23.91-.92.9-1.7-.04-3.4,0-5.11,0Z"/>
  <path d="m216,161.98c0,1.71-.04,3.41,0,5.12.02.71-.2.93-.91.91-1.71-.04-3.41,0-5.12,0,0-2.01,0-4.02,0-6.03,2.01,0,4.02,0,6.03,0Z"/>
  <path d="m204,168.01c-1.71,0-3.41-.04-5.12,0-.71.02-.93-.2-.91-.91.04-1.71,0-3.41,0-5.12,2.01,0,4.02,0,6.03,0,0,2.01,0,4.02,0,6.03Z"/>
  <path d="m210,167.98c0,3.66-.04,7.33,0,10.99,0,.81-.22,1.07-1.04,1.04-1.66-.06-3.33,0-4.99,0,0-4.01,0-8.02,0-12.03h6.03Z"/>
  <path d="m198,180.01c-2.01,0-4.02,0-6.03,0,0-1.7.04-3.4,0-5.11-.02-.69.16-.95.89-.93,1.41.05,2.82.05,4.23,0,.73-.03.91.24.9.92-.04,1.7,0,3.4,0,5.11Z"/>
  <path d="m200.97,203.98q-2.98,0-2.98-2.94t3.06-3.06,2.94,2.98-3.02,3.02Z"/>
  <path d="m36,143.98c2.01,0,4.02,0,6.03,0,0,2.01,0,4.02,0,6.03-1.71,0-3.41-.04-5.12,0-.71.02-.93-.2-.91-.91.04-1.7,0-3.41,0-5.12Z"/>
  <path d="m60.03,149.98v6.03c-2.01,0-4.02,0-6.03,0,0-1.58.04-3.16.01-4.74-.02-.93.27-1.35,1.29-1.3,1.57.07,3.16,0,4.73,0Z"/>
  <path d="m48.01,39c0,2.7-.02,5.41.01,8.11,0,.71-.2.92-.91.91-5.41-.03-10.82-.03-16.23,0-.74,0-.89-.26-.89-.94.02-5.24.03-10.49,0-15.73,0-.99.29-1.38,1.35-1.37,5.2.05,10.4.05,15.6,0,.92,0,1.08.31,1.07,1.14-.05,2.62-.02,5.24-.02,7.86Z"/>
  <path d="m219.11,30.02c2.58,0,5.16.03,7.74-.02.81-.01,1.16.12,1.15,1.06-.05,5.33-.04,10.66,0,15.98,0,.75-.17.99-.96.99-5.37-.04-10.74-.04-16.11,0-.8,0-.96-.26-.96-1,.03-5.33.03-10.66,0-15.98,0-.8.19-1.07,1.03-1.05,2.7.05,5.41.02,8.12.02Z"/>
  <path d="m30.02,218.86c0-2.62.03-5.24-.02-7.87-.02-.85.27-1.03,1.06-1.02,5.33.03,10.65.03,15.98,0,.74,0,1,.16.99.96-.04,5.37-.04,10.74,0,16.11,0,.79-.25.96-.99.96-5.33-.03-10.65-.03-15.98,0-.79,0-1.07-.18-1.06-1.02.05-2.7.02-5.41.02-8.12Z"/>
  <path d="m77.99,167.98h6.03c0,4.01,0,8.02,0,12.03-2.01,0-4.02,0-6.03,0v-12.03Z"/>
  <g>
    <g>
      <path class="uuid-cf060d11-5e9d-451f-bb8b-7f7770bdda08" d="m132.76,131.84c-.48-.15-.94-.28-1.38-.4-.47-.13-.88-.25-1.22-.38-.12.04-.33.1-.61.19-.27.09-.6.2-1.03.31-.28.08-.6.16-.96.27v-.78c.33-.11.67-.21,1-.31h.04c.19-.07.36-.11.51-.16-.39-.25-.64-.45-.78-.62-.18-.21-.3-.42-.35-.62-.05-.19-.08-.45-.08-.79v-.76h-.31v-.82h.31v-.47h.84v.47h2.84v-.47h.83v.47h.36v.82h-.36v.63c0,.44-.03.74-.08.91-.14.43-.58.9-1.11,1.25.13.04.28.08.38.11l.16.04.69.21.32.1v.78h0Zm-4.03-3.23c0,.3.04.53.12.66.2.36.63.67,1.31.95h0c.32-.1.73-.39.85-.48.2-.16.35-.31.44-.48.08-.15.12-.34.12-.58v-.89h-2.84v.81"/>
      <path class="uuid-cf060d11-5e9d-451f-bb8b-7f7770bdda08" d="m124.22,127.51h.92v1.05h-.92v.82h.92v1.58c0,.28.08.49.24.63.15.14.35.21.58.21h1.28v-.81h-.93c-.11,0-.19-.03-.24-.08-.05-.04-.08-.14-.08-.28v-1.24h1.25v-.82h-1.25v-1.05h1.25v-.82h-3.02v.82h0Z"/>
      <path class="uuid-cf060d11-5e9d-451f-bb8b-7f7770bdda08" d="m128.43,125.98c0-.13.06-.24.17-.33.1-.08.22-.12.36-.12h2.28c.22,0,.37.04.46.12.1.1.15.2.15.33v.27h.87v-.35c0-.28-.08-.52-.23-.73-.24-.31-.58-.47-1.03-.47h-.8v-.41h-.86v.41h-.82c-.2,0-.37.01-.51.04-.2.04-.38.12-.54.26-.24.22-.37.45-.37.69v.56h.85v-.27h0Z"/>
      <g>
        <path class="uuid-cf060d11-5e9d-451f-bb8b-7f7770bdda08" d="m137.55,130.69c0,.13-.02.22-.06.26-.04.04-.13.05-.27.05h-.43s0,.83,0,.83h.63c.69,0,1.03-.3,1.03-.92v-2.81s-.9,0-.9,0v2.59h0Z"/>
        <path class="uuid-cf060d11-5e9d-451f-bb8b-7f7770bdda08" d="m133.92,131.83v-.78c.72-.11,1.15-.24,1.32-.39.21-.21.31-.49.32-.86h-1.64v-.76s2.67,0,2.67,0v.77h0c-.08.56-.24.98-.47,1.23-.29.31-.72.54-1.29.68-.2.05-.51.09-.9.12h0Z"/>
        <path class="uuid-cf060d11-5e9d-451f-bb8b-7f7770bdda08" d="m141.97,131.83v-.78c-.72-.11-1.15-.24-1.32-.39-.21-.21-.31-.49-.31-.86h1.64v-.76s-2.67,0-2.67,0v.77h0c.08.56.24.98.47,1.23.28.31.72.54,1.29.68.2.05.51.09.9.12h0Z"/>
        <path class="uuid-cf060d11-5e9d-451f-bb8b-7f7770bdda08" d="m142,128.64c-.3-.01-.55-.05-.74-.11-.42-.15-.8-.48-1.13-.97h-4.1c-.38.35-.74.61-1.07.79-.29.15-.68.25-1.13.3v-.73c.22-.02.38-.06.5-.09.14-.04.32-.13.54-.26h-1.02v-.72h1.87l.32-.36h-2.19v-.72h2.68l.21-.35h-2.89v-.72h3.32l.25-.42h.86l-.25.42h3.96v.72h-4.39l-.15.26h0s-.05.08-.05.08h4.59v.72s-5.04,0-5.04,0l-.22.36h5.26v.72h-.86c.2.15.34.25.44.29.1.04.24.06.43.07v.74h0Zm-5.06-2.16h0"/>
      </g>
      <path class="uuid-cf060d11-5e9d-451f-bb8b-7f7770bdda08" d="m143,131.86v-.83c.5-.15.89-.33,1.16-.51.25-.18.49-.41.69-.7h-.7c-.27,0-.44-.04-.53-.1-.23-.16-.35-.39-.35-.68v-1.7c0-.23.07-.42.21-.56.15-.15.36-.22.65-.22h2.57v-.79h-3.66v-.82h3.66v-.64h.82v.64h3.67v.82h-3.67v.79h2.62c.25,0,.45.07.6.22.15.14.22.29.22.45v1.82c0,.22-.08.41-.23.56-.08.08-.15.13-.22.15-.08.03-.22.04-.41.05h-.07s-.93,0-.93,0v.53c0,.24.06.41.16.52.09.09.24.13.42.13h1.49v.83h-1.53c-.53,0-.91-.17-1.13-.5-.11-.17-.19-.36-.22-.58-.02-.12-.03-.3-.03-.53v-.4h-2.43c-.25.55-.59.98-.99,1.28-.45.33-1.07.59-1.84.76h0Zm1.54-4.52c-.23,0-.36.02-.41.07-.06.06-.09.17-.09.32v.96c0,.14.03.24.08.29.05.05.15.07.35.07h5.14c.28,0,.44-.03.5-.08.06-.06.08-.17.08-.31v-.93c0-.12-.02-.21-.06-.26-.06-.08-.2-.12-.43-.12h-5.17Z"/>
      <path class="uuid-cf060d11-5e9d-451f-bb8b-7f7770bdda08" d="m125.14,124.63c-.3,0-.53.07-.69.21-.15.14-.23.32-.23.54v.97h.82v-.58c0-.15.03-.26.1-.31.05-.04.2-.07.44-.07h1.35v-.75h-1.79Z"/>
    </g>
    <g>
      <g>
        <path class="uuid-cf060d11-5e9d-451f-bb8b-7f7770bdda08" d="m132.96,135.99c-.16,0-.28-.1-.28-.23v-1.29c0-.12-.13-.22-.29-.22h-2.35c-.16,0-.29.1-.29.22v1.29c0,.13-.12.23-.28.23s-.28-.1-.28-.23v-1.3c0-.37.38-.67.86-.67h2.35c.48,0,.86.3.86.67v1.3c0,.13-.12.23-.29.23h0Z"/>
        <path class="uuid-cf060d11-5e9d-451f-bb8b-7f7770bdda08" d="m137.44,135.99c-.16,0-.28-.1-.28-.23v-1.29c0-.12-.13-.22-.29-.22h-2.35c-.16,0-.29.1-.29.22v1.29c0,.13-.12.23-.28.23s-.28-.1-.28-.23v-1.3c0-.37.38-.67.86-.67h2.35c.48,0,.86.3.86.67v1.3c0,.13-.12.23-.29.23h0Z"/>
        <path class="uuid-cf060d11-5e9d-451f-bb8b-7f7770bdda08" d="m141.91,135.99h-2.88c-.49,0-.89-.3-.89-.68v-2.22c0-.13.12-.24.28-.24s.28.11.28.24v.67s.02.03.04.03h3.16c.16,0,.3.1.3.22s-.13.24-.3.24h-3.16s-.04.02-.04.03v1.04c0,.12.12.21.29.21h2.91c.16,0,.3.1.3.23s-.13.24-.3.24h0Z"/>
        <path class="uuid-cf060d11-5e9d-451f-bb8b-7f7770bdda08" d="m146.4,135.99h-2.93c-.46,0-.85-.3-.85-.66v-.87c0-.37.39-.67.85-.67h2.37c.47,0,.85.31.85.67,0,.38-.38.67-.85.67h-2.06c-.16,0-.28-.1-.28-.23s.13-.23.28-.23h2.06c.17,0,.28-.08.28-.2,0-.09-.12-.2-.28-.2h-2.37c-.16,0-.28.11-.28.21v.85c0,.12.12.22.27.22h2.94c.16,0,.28.1.28.23s-.13.23-.28.23Z"/>
        <path class="uuid-cf060d11-5e9d-451f-bb8b-7f7770bdda08" d="m150.88,135.99h-2.93c-.47,0-.85-.3-.85-.67v-.86c0-.37.38-.67.85-.67h2.93c.16,0,.28.1.28.23s-.13.23-.28.23h-2.93c-.16,0-.28.1-.28.22v.84c0,.12.12.22.28.22h2.93c.16,0,.28.1.28.23s-.13.23-.28.23h0Z"/>
      </g>
      <path class="uuid-cf060d11-5e9d-451f-bb8b-7f7770bdda08" d="m128.56,136c-.09,0-.17-.04-.22-.12l-1.52-2.15s-.07-.08-.12-.13c-.05-.05-.11-.07-.16-.07s-.11.03-.16.07c-.05.05-.08.09-.11.13l-1.54,2.15c-.06.07-.13.11-.21.11-.08,0-.14-.03-.2-.09s-.08-.13-.08-.21c0-.07.02-.13.06-.18l1.59-2.26c.07-.1.17-.18.28-.25.12-.06.24-.1.38-.1.13,0,.25.03.36.09s.21.14.28.24l1.59,2.24s.05.07.06.1c.02.03.02.07.02.11,0,.08-.03.15-.08.21-.06.06-.12.09-.2.09h0Z"/>
      <path class="uuid-0652eb4e-e87c-4901-b7ef-f501844a8805" d="m126.63,134.64c-.08-.09-.16-.04-.19,0l-.89,1.2s0,.03.02.03h1.94s.03-.02.02-.03l-.89-1.2h0Z"/>
    </g>
    <path class="uuid-3e1d1b22-63f0-45f1-bb02-8270e3bfa508" d="m112.96,122.03c2.49,1.47,5,3.6,6.35,6.44.45.94.85,2.12.92,3.33.14,2.28-1.14,3.6-2.61,4.37-1.14.6-2.51.89-4.03,1.06,1.09-.35,1.99-.88,2.66-1.7.64-.77,1.21-1.82,1.26-3.1.11-2.76-1.32-4.56-2.79-5.9.05,2.96-1.16,5.02-2.59,6.69-.47.55-1,1.15-1.58,1.51-.04.03-.57.31-.85.48-.81.48-1.63,1.08-2.39,1.63,2.55-2.44,5.01-5.37,5.66-9.88.21-1.48.11-3.27,0-4.93h0Z"/>
    <path class="uuid-afac77fe-b05c-40ff-9039-5b666a9881bc" d="m122.55,131.52c-.35.01-.76.03-1.14.06-1,.07-2.02.22-3.06.43-.28.06-.57.12-.85.19h0c-.08.02-.16.04-.25.06-1.35.33-2.7.76-3.98,1.26-1.21.47-2.17.91-2.9,1.31h0c-1.19.63-2.25,1.42-3.07,2.01.16-.08.27-.15.42-.22l.16-.08c.11-.05.22-.1.33-.15,1.14-.53,2.33-.99,3.55-1.37.11-.04.22-.07.32-.11.03,0,.06-.02.09-.03,1-.31,2.02-.57,3.03-.78.71-.15,1.41-.26,2.1-.34.02,0,.04,0,.07-.01h0c.91-.11,1.79-.16,2.64-.16h0c.14,0,.43,0,.56,0,.07,0,.14,0,.21,0,.03,0,.07,0,.1,0,.17,0,.35.01.53.02l2-2.09c-.29-.01-.58,0-.88,0h0Z"/>
    <path class="uuid-68079dfe-ad83-4c22-84ff-592de88fb996" d="m109.62,135.41c.14-.08.29-.16.43-.23h0c.85-.47,1.94-.95,3.07-1.4,1.34-.52,2.73-.96,4.12-1.3.09-.02.39-.09.47-.11h0c.22-.05-.22.05,0,0,1.09-.25,2.8-.52,3.82-.59.41-.03.83-.05,1.18-.06.08,0,.16,0,.23,0l-1.54,1.61c-.15,0-.29,0-.43-.01-.02,0-.07,0-.11,0h-.22c-.13,0-.28,0-.42,0-.1,0-.16,0-.17,0h-.29c-.7.02-1.43.07-2.19.15h0l-.34.04s-.04,0-.06,0c-.75.09-1.49.21-2.21.36-1.04.21-2.12.49-3.19.82h-.03s-.04.02-.04.02c-.12.04-.23.07-.34.11h-.02c-.58.19-1.17.39-1.74.61h0Z"/>
    <path class="uuid-5d1a1ffd-cb0d-4e55-8518-499345aa3a4c" d="m109.63,134.81c1.7-2.14,3.16-4.78,3.6-8.07.18-1.37.12-2.83.04-4.36,2.99,1.97,6.04,4.63,6.83,9.13,0,0-.42.03-.82.1-.4.07-1.04.22-1.04.22h0c-.2-2.66-1.77-4.46-3.24-5.95l-1.03-1.05.08,1.45c.1,1.73-.35,3.31-1.44,5.11-.4.66-.88,1.3-1.43,1.93-.47.53-1,1.11-1.54,1.49h0Z"/>
  </g>
</svg>